<?xml version="1.0" encoding="UTF-8" standalone="no"?>
<!-- Created with Inkscape (http://www.inkscape.org/) -->

<svg
   width="297mm"
   height="210mm"
   viewBox="0 0 297 210"
   version="1.1"
   id="svg5"
   sodipodi:docname="LinearizationFar.svg"
   inkscape:version="1.2.1 (1:1.2.1+202210291244+9c6d41e410)"
   xmlns:inkscape="http://www.inkscape.org/namespaces/inkscape"
   xmlns:sodipodi="http://sodipodi.sourceforge.net/DTD/sodipodi-0.dtd"
   xmlns="http://www.w3.org/2000/svg"
   xmlns:svg="http://www.w3.org/2000/svg">
  <sodipodi:namedview
     id="namedview7"
     pagecolor="#ffffff"
     bordercolor="#cccccc"
     borderopacity="1"
     inkscape:showpageshadow="0"
     inkscape:pageopacity="1"
     inkscape:pagecheckerboard="0"
     inkscape:deskcolor="#d1d1d1"
     inkscape:document-units="mm"
     showgrid="false"
     inkscape:zoom="1.6195795"
     inkscape:cx="214.56187"
     inkscape:cy="382.81542"
     inkscape:window-width="1920"
     inkscape:window-height="1030"
     inkscape:window-x="0"
     inkscape:window-y="50"
     inkscape:window-maximized="1"
     inkscape:current-layer="layer1" />
  <defs
     id="defs2">
    <inkscape:path-effect
       effect="bspline"
       id="path-effect22633"
       is_visible="true"
       lpeversion="1"
       weight="33.333333"
       steps="2"
       helper_size="0"
       apply_no_weight="true"
       apply_with_weight="true"
       only_selected="false" />
    <inkscape:path-effect
       effect="bspline"
       id="path-effect21835"
       is_visible="true"
       lpeversion="1"
       weight="33.333333"
       steps="2"
       helper_size="0"
       apply_no_weight="true"
       apply_with_weight="true"
       only_selected="false" />
    <marker
       style="overflow:visible"
       id="Arrow1"
       refX="0"
       refY="0"
       orient="auto-start-reverse"
       inkscape:stockid="Arrow1"
       markerWidth="4.0606599"
       markerHeight="6.7071061"
       viewBox="0 0 4.0606602 6.7071068"
       inkscape:isstock="true"
       inkscape:collect="always"
       preserveAspectRatio="xMidYMid">
      <path
         style="fill:none;stroke:context-stroke;stroke-width:1;stroke-linecap:butt"
         d="M 3,-3 0,0 3,3"
         id="path5057"
         transform="rotate(180,0.125,0)"
         sodipodi:nodetypes="ccc" />
    </marker>
    <inkscape:path-effect
       effect="bspline"
       id="path-effect20875"
       is_visible="true"
       lpeversion="1"
       weight="33.333333"
       steps="2"
       helper_size="0"
       apply_no_weight="true"
       apply_with_weight="true"
       only_selected="false" />
    <inkscape:path-effect
       effect="bspline"
       id="path-effect18541"
       is_visible="true"
       lpeversion="1"
       weight="33.333333"
       steps="2"
       helper_size="0"
       apply_no_weight="true"
       apply_with_weight="true"
       only_selected="false" />
    <inkscape:path-effect
       effect="bspline"
       id="path-effect3363"
       is_visible="true"
       lpeversion="1"
       weight="33.333333"
       steps="2"
       helper_size="0"
       apply_no_weight="true"
       apply_with_weight="true"
       only_selected="false" />
    <inkscape:path-effect
       effect="bspline"
       id="path-effect3263"
       is_visible="true"
       lpeversion="1"
       weight="33.333333"
       steps="2"
       helper_size="0"
       apply_no_weight="true"
       apply_with_weight="true"
       only_selected="false" />
    <inkscape:path-effect
       effect="bspline"
       id="path-effect69"
       is_visible="true"
       lpeversion="1"
       weight="33.333333"
       steps="2"
       helper_size="0"
       apply_no_weight="true"
       apply_with_weight="true"
       only_selected="false" />
    <inkscape:path-effect
       effect="bspline"
       id="path-effect65"
       is_visible="true"
       lpeversion="1"
       weight="33.333333"
       steps="2"
       helper_size="0"
       apply_no_weight="true"
       apply_with_weight="true"
       only_selected="false" />
    <clipPath
       id="clipPath638">
      <path
         d="M 0,0 H 4 V 9.964844 H 0 Z m 0,0"
         id="path3360" />
    </clipPath>
    <clipPath
       id="clipPath4839">
      <path
         d="m 4,3 h 8 V 9.964844 H 4 Z m 0,0"
         id="path8281" />
    </clipPath>
    <clipPath
       id="clipPath6763">
      <path
         d="m 14,0 h 6 v 9.964844 h -6 z m 0,0"
         id="path2919" />
    </clipPath>
    <clipPath
       id="clipPath7754">
      <path
         d="m 22,0 h 3 v 9.964844 h -3 z m 0,0"
         id="path8918" />
    </clipPath>
    <clipPath
       id="clipPath5975">
      <path
         d="m 30,0 h 8 v 9.964844 h -8 z m 0,0"
         id="path8947" />
    </clipPath>
    <clipPath
       id="clipPath2464">
      <path
         d="M 0,3 H 5 V 9.964844 H 0 Z m 0,0"
         id="path9674" />
    </clipPath>
    <clipPath
       id="clipPath1613">
      <path
         d="m 19,0 h 6 v 9.964844 h -6 z m 0,0"
         id="path5482" />
    </clipPath>
    <clipPath
       id="clipPath899">
      <path
         d="m 27,0 h 3 v 9.964844 h -3 z m 0,0"
         id="path3044" />
    </clipPath>
    <clipPath
       id="clipPath5870">
      <path
         d="m 36,0 h 3 v 9.964844 h -3 z m 0,0"
         id="path3246" />
    </clipPath>
    <clipPath
       id="clipPath8403">
      <path
         d="M 0,3 H 5 V 9.964844 H 0 Z m 0,0"
         id="path9532" />
    </clipPath>
    <clipPath
       id="clipPath5110">
      <path
         d="m 27,0 h 4 v 9.964844 h -4 z m 0,0"
         id="path1883" />
    </clipPath>
    <clipPath
       id="clipPath3520">
      <path
         d="m 37,0 h 3 v 9.964844 h -3 z m 0,0"
         id="path9557" />
    </clipPath>
    <inkscape:path-effect
       effect="bspline"
       id="path-effect3263-7"
       is_visible="true"
       lpeversion="1"
       weight="33.333333"
       steps="2"
       helper_size="0"
       apply_no_weight="true"
       apply_with_weight="true"
       only_selected="false" />
    <inkscape:path-effect
       effect="bspline"
       id="path-effect3363-5"
       is_visible="true"
       lpeversion="1"
       weight="33.333333"
       steps="2"
       helper_size="0"
       apply_no_weight="true"
       apply_with_weight="true"
       only_selected="false" />
    <clipPath
       id="clipPath638-3">
      <path
         d="M 0,0 H 4 V 9.964844 H 0 Z m 0,0"
         id="path3360-5" />
    </clipPath>
    <clipPath
       id="clipPath4839-6">
      <path
         d="m 4,3 h 8 V 9.964844 H 4 Z m 0,0"
         id="path8281-2" />
    </clipPath>
    <clipPath
       id="clipPath6763-9">
      <path
         d="m 14,0 h 6 v 9.964844 h -6 z m 0,0"
         id="path2919-1" />
    </clipPath>
    <clipPath
       id="clipPath7754-2">
      <path
         d="m 22,0 h 3 v 9.964844 h -3 z m 0,0"
         id="path8918-7" />
    </clipPath>
    <clipPath
       id="clipPath5975-0">
      <path
         d="m 30,0 h 8 v 9.964844 h -8 z m 0,0"
         id="path8947-9" />
    </clipPath>
    <clipPath
       id="clipPath2464-3">
      <path
         d="M 0,3 H 5 V 9.964844 H 0 Z m 0,0"
         id="path9674-6" />
    </clipPath>
    <clipPath
       id="clipPath1613-0">
      <path
         d="m 19,0 h 6 v 9.964844 h -6 z m 0,0"
         id="path5482-6" />
    </clipPath>
    <clipPath
       id="clipPath899-2">
      <path
         d="m 27,0 h 3 v 9.964844 h -3 z m 0,0"
         id="path3044-6" />
    </clipPath>
    <clipPath
       id="clipPath5870-1">
      <path
         d="m 36,0 h 3 v 9.964844 h -3 z m 0,0"
         id="path3246-8" />
    </clipPath>
    <clipPath
       id="clipPath8403-7">
      <path
         d="M 0,3 H 5 V 9.964844 H 0 Z m 0,0"
         id="path9532-9" />
    </clipPath>
    <clipPath
       id="clipPath5110-2">
      <path
         d="m 27,0 h 4 v 9.964844 h -4 z m 0,0"
         id="path1883-0" />
    </clipPath>
    <clipPath
       id="clipPath3520-2">
      <path
         d="m 37,0 h 3 v 9.964844 h -3 z m 0,0"
         id="path9557-3" />
    </clipPath>
    <clipPath
       id="clipPath3166">
      <path
         d="M 0,3 H 5 V 9.964844 H 0 Z m 0,0"
         id="path7407" />
    </clipPath>
    <clipPath
       id="clipPath8617">
      <path
         d="m 27,0 h 4 v 9.964844 h -4 z m 0,0"
         id="path3626" />
    </clipPath>
    <clipPath
       id="clipPath2421">
      <path
         d="m 37,0 h 3 v 9.964844 h -3 z m 0,0"
         id="path5513" />
    </clipPath>
    <clipPath
       id="clipPath3684">
      <path
         d="M 0,3 H 5 V 9.964844 H 0 Z m 0,0"
         id="path7458" />
    </clipPath>
    <clipPath
       id="clipPath757">
      <path
         d="m 19,0 h 6 v 9.964844 h -6 z m 0,0"
         id="path3411" />
    </clipPath>
    <clipPath
       id="clipPath6760">
      <path
         d="m 27,0 h 3 v 9.964844 h -3 z m 0,0"
         id="path4485" />
    </clipPath>
    <clipPath
       id="clipPath2932">
      <path
         d="m 36,0 h 3 v 9.964844 h -3 z m 0,0"
         id="path4138" />
    </clipPath>
    <clipPath
       id="clipPath413">
      <path
         d="M 0,0 H 4 V 9.964844 H 0 Z m 0,0"
         id="path2269" />
    </clipPath>
    <clipPath
       id="clipPath2685">
      <path
         d="m 4,3 h 8 V 9.964844 H 4 Z m 0,0"
         id="path3006" />
    </clipPath>
    <clipPath
       id="clipPath4875">
      <path
         d="m 14,0 h 6 v 9.964844 h -6 z m 0,0"
         id="path6143" />
    </clipPath>
    <clipPath
       id="clipPath3079">
      <path
         d="m 22,0 h 3 v 9.964844 h -3 z m 0,0"
         id="path8155" />
    </clipPath>
    <clipPath
       id="clipPath7382">
      <path
         d="m 30,0 h 8 v 9.964844 h -8 z m 0,0"
         id="path2429" />
    </clipPath>
  </defs>
  <g
     inkscape:label="Layer 1"
     inkscape:groupmode="layer"
     id="layer1">
    <path
       style="fill:none;stroke:#000000;stroke-width:0.132;stroke-linecap:butt;stroke-linejoin:miter;stroke-opacity:1;marker-start:url(#Arrow1);marker-end:url(#Arrow1);stroke-dasharray:none"
       d="m 49.797065,58.889196 c 0,6.368748 0,12.736235 3.218699,15.919353 3.218698,3.183118 9.654595,3.183118 16.089362,3.183118"
       id="path20873"
       inkscape:path-effect="#path-effect20875"
       inkscape:original-d="m 49.797065,58.889196 c 0.0012,6.368748 0.0012,12.736235 0,19.102471 6.437397,0.0012 12.873294,0.0012 19.308061,0" />
    <circle
       style="opacity:1;fill:#000000;fill-opacity:1;stroke:#000000;stroke-width:0.132;stroke-linecap:butt;stroke-linejoin:miter;stroke-miterlimit:4;stroke-dasharray:none;stroke-opacity:1;paint-order:normal"
       id="path21831"
       cx="52.192181"
       cy="73.822563"
       r="0.18461062" />
    <path
       style="fill:none;stroke:#000000;stroke-width:0.132;stroke-linecap:butt;stroke-linejoin:miter;stroke-opacity:1;marker-start:url(#Arrow1);marker-end:url(#Arrow1);stroke-dasharray:none"
       d="m 43.203465,60.235773 c 6.008765,9.140651 12.017296,18.280946 18.025597,27.420891"
       id="path21833"
       inkscape:path-effect="#path-effect21835"
       inkscape:original-d="m 43.203465,60.235773 c 6.008842,9.1406 12.017373,18.280895 18.025597,27.420891"
       sodipodi:nodetypes="cc" />
    <g
       inkscape:label=""
       transform="matrix(0.28373322,0,0,0.28373322,39.671004,62.082108)"
       id="g23252"
       style="stroke-width:3.52444">
      <g
         id="surface1"
         transform="matrix(0.352778,0,0,0.352778,-0.104731,0.00436558)"
         style="stroke-width:3.52444">
        <g
           clip-path="url(#clipPath3166)"
           clip-rule="nonzero"
           id="g43"
           style="stroke-width:12.4217">
          <g
             style="fill:#000000;fill-opacity:1;stroke-width:3.52444"
             id="g41">
            <g
               id="use39"
               transform="translate(0,7.4720001)"
               style="stroke-width:3.52444">
              <path
                 style="stroke:none;stroke-width:3.52444"
                 d="m 4.84375,-3.796875 c 0.046875,-0.140625 0.046875,-0.15625 0.046875,-0.234375 0,-0.171875 -0.140625,-0.265625 -0.296875,-0.265625 -0.09375,0 -0.25,0.0625 -0.34375,0.203125 -0.015625,0.0625 -0.109375,0.359375 -0.140625,0.546875 -0.078125,0.25 -0.140625,0.53125 -0.203125,0.796875 l -0.453125,1.796875 c -0.03125,0.140625 -0.46875,0.84375 -1.125,0.84375 -0.5,0 -0.609375,-0.4375 -0.609375,-0.8125 C 1.71875,-1.375 1.890625,-2 2.21875,-2.875 2.375,-3.28125 2.421875,-3.390625 2.421875,-3.59375 c 0,-0.4375 -0.3125,-0.8125 -0.8125,-0.8125 -0.953125,0 -1.3125,1.453125 -1.3125,1.53125 0,0.109375 0.09375,0.109375 0.109375,0.109375 0.109375,0 0.109375,-0.03125 0.15625,-0.1875 0.28125,-0.9375 0.671875,-1.234375 1.015625,-1.234375 0.078125,0 0.25,0 0.25,0.3125 0,0.25 -0.109375,0.515625 -0.171875,0.703125 -0.40625,1.0625 -0.578125,1.625 -0.578125,2.09375 0,0.890625 0.625,1.1875 1.21875,1.1875 0.390625,0 0.71875,-0.171875 1,-0.453125 -0.125,0.515625 -0.25,1.015625 -0.640625,1.546875 -0.265625,0.328125 -0.640625,0.625 -1.09375,0.625 -0.140625,0 -0.59375,-0.03125 -0.765625,-0.421875 0.15625,0 0.296875,0 0.421875,-0.125 C 1.328125,1.203125 1.421875,1.0625 1.421875,0.875 1.421875,0.5625 1.15625,0.53125 1.0625,0.53125 0.828125,0.53125 0.5,0.6875 0.5,1.171875 c 0,0.5 0.4375,0.875 1.0625,0.875 1.015625,0 2.046875,-0.90625 2.328125,-2.03125 z m 0,0"
                 id="path74" />
            </g>
          </g>
        </g>
        <g
           style="fill:#000000;fill-opacity:1;stroke-width:3.52444"
           id="g47">
          <g
             id="use45"
             transform="translate(8.0089998,7.4720001)"
             style="stroke-width:3.52444">
            <path
               style="stroke:none;stroke-width:3.52444"
               d="m 6.84375,-3.265625 c 0.15625,0 0.34375,0 0.34375,-0.1875 C 7.1875,-3.65625 7,-3.65625 6.859375,-3.65625 h -5.96875 c -0.140625,0 -0.328125,0 -0.328125,0.203125 0,0.1875 0.1875,0.1875 0.328125,0.1875 z m 0.015625,1.9375 c 0.140625,0 0.328125,0 0.328125,-0.203125 0,-0.1875 -0.1875,-0.1875 -0.34375,-0.1875 H 0.890625 c -0.140625,0 -0.328125,0 -0.328125,0.1875 0,0.203125 0.1875,0.203125 0.328125,0.203125 z m 0,0"
               id="path78" />
          </g>
        </g>
        <g
           style="fill:#000000;fill-opacity:1;stroke-width:3.52444"
           id="g51">
          <g
             id="use49"
             transform="translate(18.525,7.4720001)"
             style="stroke-width:3.52444">
            <path
               style="stroke:none;stroke-width:3.52444"
               d="M 3.734375,-6.03125 C 3.8125,-6.390625 3.84375,-6.5 4.78125,-6.5 c 0.296875,0 0.375,0 0.375,-0.1875 0,-0.125 -0.109375,-0.125 -0.15625,-0.125 -0.328125,0 -1.140625,0.03125 -1.46875,0.03125 -0.296875,0 -1.03125,-0.03125 -1.328125,-0.03125 -0.0625,0 -0.1875,0 -0.1875,0.203125 0,0.109375 0.09375,0.109375 0.28125,0.109375 0.015625,0 0.203125,0 0.375,0.015625 0.171875,0.03125 0.265625,0.03125 0.265625,0.171875 0,0.03125 0,0.0625 -0.03125,0.1875 L 1.5625,-0.78125 c -0.09375,0.390625 -0.109375,0.46875 -0.90625,0.46875 -0.171875,0 -0.265625,0 -0.265625,0.203125 C 0.390625,0 0.484375,0 0.65625,0 h 4.625 C 5.515625,0 5.515625,0 5.578125,-0.171875 L 6.375,-2.328125 c 0.03125,-0.109375 0.03125,-0.125 0.03125,-0.140625 0,-0.03125 -0.03125,-0.109375 -0.109375,-0.109375 -0.09375,0 -0.109375,0.0625 -0.171875,0.21875 -0.34375,0.90625 -0.78125,2.046875 -2.5,2.046875 H 2.6875 c -0.140625,0 -0.171875,0 -0.21875,0 -0.109375,-0.015625 -0.140625,-0.03125 -0.140625,-0.109375 0,-0.03125 0,-0.046875 0.046875,-0.21875 z m 0,0"
               id="path82" />
          </g>
        </g>
        <g
           clip-path="url(#clipPath8617)"
           clip-rule="nonzero"
           id="g57"
           style="stroke-width:12.4217">
          <g
             style="fill:#000000;fill-opacity:1;stroke-width:3.52444"
             id="g55">
            <g
               id="use53"
               transform="translate(26.966,7.4720001)"
               style="stroke-width:3.52444">
              <path
                 style="stroke:none;stroke-width:3.52444"
                 d="m 3.296875,2.390625 c 0,-0.03125 0,-0.046875 -0.171875,-0.21875 C 1.890625,0.921875 1.5625,-0.96875 1.5625,-2.5 c 0,-1.734375 0.375,-3.46875 1.609375,-4.703125 0.125,-0.125 0.125,-0.140625 0.125,-0.171875 0,-0.078125 -0.03125,-0.109375 -0.09375,-0.109375 -0.109375,0 -1,0.6875 -1.59375,1.953125 -0.5,1.09375 -0.625,2.203125 -0.625,3.03125 0,0.78125 0.109375,1.984375 0.65625,3.125 C 2.25,1.84375 3.09375,2.5 3.203125,2.5 c 0.0625,0 0.09375,-0.03125 0.09375,-0.109375 z m 0,0"
                 id="path86" />
            </g>
          </g>
        </g>
        <g
           style="fill:#000000;fill-opacity:1;stroke-width:3.52444"
           id="g61">
          <g
             id="use59"
             transform="translate(30.84,7.4720001)"
             style="stroke-width:3.52444">
            <path
               style="stroke:none;stroke-width:3.52444"
               d="M 3.328125,-3.015625 C 3.390625,-3.265625 3.625,-4.1875 4.3125,-4.1875 c 0.046875,0 0.296875,0 0.5,0.125 C 4.53125,-4 4.34375,-3.765625 4.34375,-3.515625 c 0,0.15625 0.109375,0.34375 0.375,0.34375 0.21875,0 0.53125,-0.171875 0.53125,-0.578125 0,-0.515625 -0.578125,-0.65625 -0.921875,-0.65625 -0.578125,0 -0.921875,0.53125 -1.046875,0.75 -0.25,-0.65625 -0.78125,-0.75 -1.078125,-0.75 -1.03125,0 -1.609375,1.28125 -1.609375,1.53125 0,0.109375 0.109375,0.109375 0.125,0.109375 0.078125,0 0.109375,-0.03125 0.125,-0.109375 0.34375,-1.0625 1,-1.3125 1.34375,-1.3125 0.1875,0 0.53125,0.09375 0.53125,0.671875 0,0.3125 -0.171875,0.96875 -0.53125,2.375 -0.15625,0.609375 -0.515625,1.03125 -0.953125,1.03125 -0.0625,0 -0.28125,0 -0.5,-0.125 0.25,-0.0625 0.46875,-0.265625 0.46875,-0.546875 0,-0.265625 -0.21875,-0.34375 -0.359375,-0.34375 -0.3125,0 -0.546875,0.25 -0.546875,0.578125 0,0.453125 0.484375,0.65625 0.921875,0.65625 0.671875,0 1.03125,-0.703125 1.046875,-0.75 0.125,0.359375 0.484375,0.75 1.078125,0.75 1.03125,0 1.59375,-1.28125 1.59375,-1.53125 0,-0.109375 -0.078125,-0.109375 -0.109375,-0.109375 -0.09375,0 -0.109375,0.046875 -0.140625,0.109375 -0.328125,1.078125 -1,1.3125 -1.3125,1.3125 -0.390625,0 -0.546875,-0.3125 -0.546875,-0.65625 0,-0.21875 0.046875,-0.4375 0.15625,-0.875 z m 0,0"
               id="path90" />
          </g>
        </g>
        <g
           clip-path="url(#clipPath2421)"
           clip-rule="nonzero"
           id="g67"
           style="stroke-width:12.4217">
          <g
             style="fill:#000000;fill-opacity:1;stroke-width:3.52444"
             id="g65">
            <g
               id="use63"
               transform="translate(36.534,7.4720001)"
               style="stroke-width:3.52444">
              <path
                 style="stroke:none;stroke-width:3.52444"
                 d="m 2.875,-2.5 c 0,-0.765625 -0.109375,-1.96875 -0.65625,-3.109375 -0.59375,-1.21875 -1.453125,-1.875 -1.546875,-1.875 -0.0625,0 -0.109375,0.046875 -0.109375,0.109375 0,0.03125 0,0.046875 0.1875,0.234375 0.984375,0.984375 1.546875,2.5625 1.546875,4.640625 0,1.71875 -0.359375,3.46875 -1.59375,4.71875 C 0.5625,2.34375 0.5625,2.359375 0.5625,2.390625 0.5625,2.453125 0.609375,2.5 0.671875,2.5 0.765625,2.5 1.671875,1.8125 2.25,0.546875 2.765625,-0.546875 2.875,-1.65625 2.875,-2.5 Z m 0,0"
                 id="path94" />
            </g>
          </g>
        </g>
      </g>
    </g>
    <g
       inkscape:label=""
       transform="matrix(0.28373322,0,0,0.28373322,50.42315,60.154904)"
       id="g23515"
       style="stroke-width:3.52444">
      <g
         id="g23513"
         transform="matrix(0.352778,0,0,0.352778,-0.104731,0.00436558)"
         style="stroke-width:3.52444">
        <g
           clip-path="url(#clipPath3684)"
           clip-rule="nonzero"
           id="g46"
           style="stroke-width:12.4217">
          <g
             style="fill:#000000;fill-opacity:1;stroke-width:3.52444"
             id="g44">
            <g
               id="use42"
               transform="translate(0,7.4720001)"
               style="stroke-width:3.52444">
              <path
                 style="stroke:none;stroke-width:3.52444"
                 d="m 4.84375,-3.796875 c 0.046875,-0.140625 0.046875,-0.15625 0.046875,-0.234375 0,-0.171875 -0.140625,-0.265625 -0.296875,-0.265625 -0.09375,0 -0.25,0.0625 -0.34375,0.203125 -0.015625,0.0625 -0.109375,0.359375 -0.140625,0.546875 -0.078125,0.25 -0.140625,0.53125 -0.203125,0.796875 l -0.453125,1.796875 c -0.03125,0.140625 -0.46875,0.84375 -1.125,0.84375 -0.5,0 -0.609375,-0.4375 -0.609375,-0.8125 C 1.71875,-1.375 1.890625,-2 2.21875,-2.875 2.375,-3.28125 2.421875,-3.390625 2.421875,-3.59375 c 0,-0.4375 -0.3125,-0.8125 -0.8125,-0.8125 -0.953125,0 -1.3125,1.453125 -1.3125,1.53125 0,0.109375 0.09375,0.109375 0.109375,0.109375 0.109375,0 0.109375,-0.03125 0.15625,-0.1875 0.28125,-0.9375 0.671875,-1.234375 1.015625,-1.234375 0.078125,0 0.25,0 0.25,0.3125 0,0.25 -0.109375,0.515625 -0.171875,0.703125 -0.40625,1.0625 -0.578125,1.625 -0.578125,2.09375 0,0.890625 0.625,1.1875 1.21875,1.1875 0.390625,0 0.71875,-0.171875 1,-0.453125 -0.125,0.515625 -0.25,1.015625 -0.640625,1.546875 -0.265625,0.328125 -0.640625,0.625 -1.09375,0.625 -0.140625,0 -0.59375,-0.03125 -0.765625,-0.421875 0.15625,0 0.296875,0 0.421875,-0.125 C 1.328125,1.203125 1.421875,1.0625 1.421875,0.875 1.421875,0.5625 1.15625,0.53125 1.0625,0.53125 0.828125,0.53125 0.5,0.6875 0.5,1.171875 c 0,0.5 0.4375,0.875 1.0625,0.875 1.015625,0 2.046875,-0.90625 2.328125,-2.03125 z m 0,0"
                 id="path79" />
            </g>
          </g>
        </g>
        <g
           style="fill:#000000;fill-opacity:1;stroke-width:3.52444"
           id="g50">
          <g
             id="use48"
             transform="translate(8.0089998,7.4720001)"
             style="stroke-width:3.52444">
            <path
               style="stroke:none;stroke-width:3.52444"
               d="m 6.84375,-3.265625 c 0.15625,0 0.34375,0 0.34375,-0.1875 C 7.1875,-3.65625 7,-3.65625 6.859375,-3.65625 h -5.96875 c -0.140625,0 -0.328125,0 -0.328125,0.203125 0,0.1875 0.1875,0.1875 0.328125,0.1875 z m 0.015625,1.9375 c 0.140625,0 0.328125,0 0.328125,-0.203125 0,-0.1875 -0.1875,-0.1875 -0.34375,-0.1875 H 0.890625 c -0.140625,0 -0.328125,0 -0.328125,0.1875 0,0.203125 0.1875,0.203125 0.328125,0.203125 z m 0,0"
               id="path83" />
          </g>
        </g>
        <g
           clip-path="url(#clipPath757)"
           clip-rule="nonzero"
           id="g56"
           style="stroke-width:12.4217">
          <g
             style="fill:#000000;fill-opacity:1;stroke-width:3.52444"
             id="g54">
            <g
               id="use52"
               transform="translate(18.525,7.4720001)"
               style="stroke-width:3.52444">
              <path
                 style="stroke:none;stroke-width:3.52444"
                 d="m 3.65625,-3.984375 h 0.859375 c 0.203125,0 0.296875,0 0.296875,-0.203125 0,-0.109375 -0.09375,-0.109375 -0.265625,-0.109375 H 3.71875 L 3.921875,-5.4375 c 0.046875,-0.203125 0.1875,-0.90625 0.25,-1.03125 0.078125,-0.1875 0.25,-0.34375 0.46875,-0.34375 0.03125,0 0.296875,0 0.484375,0.1875 -0.4375,0.03125 -0.546875,0.390625 -0.546875,0.53125 0,0.234375 0.1875,0.359375 0.375,0.359375 C 5.21875,-5.734375 5.5,-5.96875 5.5,-6.34375 c 0,-0.453125 -0.453125,-0.6875 -0.859375,-0.6875 -0.34375,0 -0.96875,0.1875 -1.265625,1.171875 -0.0625,0.203125 -0.09375,0.3125 -0.328125,1.5625 h -0.6875 c -0.203125,0 -0.3125,0 -0.3125,0.1875 0,0.125 0.09375,0.125 0.28125,0.125 h 0.65625 L 2.25,-0.046875 c -0.1875,0.96875 -0.359375,1.875 -0.875,1.875 -0.046875,0 -0.28125,0 -0.484375,-0.1875 C 1.359375,1.609375 1.453125,1.25 1.453125,1.109375 1.453125,0.875 1.265625,0.75 1.078125,0.75 0.8125,0.75 0.53125,0.984375 0.53125,1.359375 c 0,0.4375 0.4375,0.6875 0.84375,0.6875 0.546875,0 0.953125,-0.59375 1.125,-0.96875 0.328125,-0.625 0.546875,-1.828125 0.5625,-1.90625 z m 0,0"
                 id="path87" />
            </g>
          </g>
        </g>
        <g
           clip-path="url(#clipPath6760)"
           clip-rule="nonzero"
           id="g62"
           style="stroke-width:12.4217">
          <g
             style="fill:#000000;fill-opacity:1;stroke-width:3.52444"
             id="g60">
            <g
               id="use58"
               transform="translate(26.136,7.4720001)"
               style="stroke-width:3.52444">
              <path
                 style="stroke:none;stroke-width:3.52444"
                 d="m 3.296875,2.390625 c 0,-0.03125 0,-0.046875 -0.171875,-0.21875 C 1.890625,0.921875 1.5625,-0.96875 1.5625,-2.5 c 0,-1.734375 0.375,-3.46875 1.609375,-4.703125 0.125,-0.125 0.125,-0.140625 0.125,-0.171875 0,-0.078125 -0.03125,-0.109375 -0.09375,-0.109375 -0.109375,0 -1,0.6875 -1.59375,1.953125 -0.5,1.09375 -0.625,2.203125 -0.625,3.03125 0,0.78125 0.109375,1.984375 0.65625,3.125 C 2.25,1.84375 3.09375,2.5 3.203125,2.5 c 0.0625,0 0.09375,-0.03125 0.09375,-0.109375 z m 0,0"
                 id="path91" />
            </g>
          </g>
        </g>
        <g
           style="fill:#000000;fill-opacity:1;stroke-width:3.52444"
           id="g66">
          <g
             id="use64"
             transform="translate(30.01,7.4720001)"
             style="stroke-width:3.52444">
            <path
               style="stroke:none;stroke-width:3.52444"
               d="M 3.328125,-3.015625 C 3.390625,-3.265625 3.625,-4.1875 4.3125,-4.1875 c 0.046875,0 0.296875,0 0.5,0.125 C 4.53125,-4 4.34375,-3.765625 4.34375,-3.515625 c 0,0.15625 0.109375,0.34375 0.375,0.34375 0.21875,0 0.53125,-0.171875 0.53125,-0.578125 0,-0.515625 -0.578125,-0.65625 -0.921875,-0.65625 -0.578125,0 -0.921875,0.53125 -1.046875,0.75 -0.25,-0.65625 -0.78125,-0.75 -1.078125,-0.75 -1.03125,0 -1.609375,1.28125 -1.609375,1.53125 0,0.109375 0.109375,0.109375 0.125,0.109375 0.078125,0 0.109375,-0.03125 0.125,-0.109375 0.34375,-1.0625 1,-1.3125 1.34375,-1.3125 0.1875,0 0.53125,0.09375 0.53125,0.671875 0,0.3125 -0.171875,0.96875 -0.53125,2.375 -0.15625,0.609375 -0.515625,1.03125 -0.953125,1.03125 -0.0625,0 -0.28125,0 -0.5,-0.125 0.25,-0.0625 0.46875,-0.265625 0.46875,-0.546875 0,-0.265625 -0.21875,-0.34375 -0.359375,-0.34375 -0.3125,0 -0.546875,0.25 -0.546875,0.578125 0,0.453125 0.484375,0.65625 0.921875,0.65625 0.671875,0 1.03125,-0.703125 1.046875,-0.75 0.125,0.359375 0.484375,0.75 1.078125,0.75 1.03125,0 1.59375,-1.28125 1.59375,-1.53125 0,-0.109375 -0.078125,-0.109375 -0.109375,-0.109375 -0.09375,0 -0.109375,0.046875 -0.140625,0.109375 -0.328125,1.078125 -1,1.3125 -1.3125,1.3125 -0.390625,0 -0.546875,-0.3125 -0.546875,-0.65625 0,-0.21875 0.046875,-0.4375 0.15625,-0.875 z m 0,0"
               id="path95" />
          </g>
        </g>
        <g
           clip-path="url(#clipPath2932)"
           clip-rule="nonzero"
           id="g72"
           style="stroke-width:12.4217">
          <g
             style="fill:#000000;fill-opacity:1;stroke-width:3.52444"
             id="g70">
            <g
               id="use68"
               transform="translate(35.703999,7.4720001)"
               style="stroke-width:3.52444">
              <path
                 style="stroke:none;stroke-width:3.52444"
                 d="m 2.875,-2.5 c 0,-0.765625 -0.109375,-1.96875 -0.65625,-3.109375 -0.59375,-1.21875 -1.453125,-1.875 -1.546875,-1.875 -0.0625,0 -0.109375,0.046875 -0.109375,0.109375 0,0.03125 0,0.046875 0.1875,0.234375 0.984375,0.984375 1.546875,2.5625 1.546875,4.640625 0,1.71875 -0.359375,3.46875 -1.59375,4.71875 C 0.5625,2.34375 0.5625,2.359375 0.5625,2.390625 0.5625,2.453125 0.609375,2.5 0.671875,2.5 0.765625,2.5 1.671875,1.8125 2.25,0.546875 2.765625,-0.546875 2.875,-1.65625 2.875,-2.5 Z m 0,0"
                 id="path99" />
            </g>
          </g>
        </g>
      </g>
    </g>
    <g
       inkscape:label=""
       transform="matrix(0.28373322,0,0,0.28373322,52.754266,72.34648)"
       id="g23861"
       style="stroke-width:3.52444">
      <g
         id="g23859"
         transform="matrix(0.352778,0,0,0.352778,-0.347266,0.00436558)"
         style="stroke-width:3.52444">
        <g
           clip-path="url(#clipPath413)"
           clip-rule="nonzero"
           id="g23828"
           style="stroke-width:12.4217">
          <g
             style="fill:#000000;fill-opacity:1;stroke-width:3.52444"
             id="g23826">
            <g
               id="g23824"
               transform="translate(0,7.4720001)"
               style="stroke-width:3.52444">
              <path
                 style="stroke:none;stroke-width:3.52444"
                 d="m 3.296875,2.390625 c 0,-0.03125 0,-0.046875 -0.171875,-0.21875 C 1.890625,0.921875 1.5625,-0.96875 1.5625,-2.5 c 0,-1.734375 0.375,-3.46875 1.609375,-4.703125 0.125,-0.125 0.125,-0.140625 0.125,-0.171875 0,-0.078125 -0.03125,-0.109375 -0.09375,-0.109375 -0.109375,0 -1,0.6875 -1.59375,1.953125 -0.5,1.09375 -0.625,2.203125 -0.625,3.03125 0,0.78125 0.109375,1.984375 0.65625,3.125 C 2.25,1.84375 3.09375,2.5 3.203125,2.5 c 0.0625,0 0.09375,-0.03125 0.09375,-0.109375 z m 0,0"
                 id="path85" />
            </g>
          </g>
        </g>
        <g
           clip-path="url(#clipPath2685)"
           clip-rule="nonzero"
           id="g23836"
           style="stroke-width:12.4217">
          <g
             style="fill:#000000;fill-opacity:1;stroke-width:3.52444"
             id="g52">
            <g
               id="g23831"
               transform="translate(3.8740001,7.4720001)"
               style="stroke-width:3.52444">
              <path
                 style="stroke:none;stroke-width:3.52444"
                 d="M 3.71875,-3.765625 C 3.53125,-4.140625 3.25,-4.40625 2.796875,-4.40625 c -1.15625,0 -2.390625,1.46875 -2.390625,2.921875 0,0.9375 0.546875,1.59375 1.3125,1.59375 0.203125,0 0.703125,-0.046875 1.296875,-0.75 0.078125,0.421875 0.4375,0.75 0.90625,0.75 0.359375,0 0.578125,-0.234375 0.75,-0.546875 0.15625,-0.359375 0.296875,-0.96875 0.296875,-0.984375 0,-0.109375 -0.09375,-0.109375 -0.125,-0.109375 -0.09375,0 -0.109375,0.046875 -0.140625,0.1875 -0.171875,0.640625 -0.34375,1.234375 -0.75,1.234375 -0.28125,0 -0.296875,-0.265625 -0.296875,-0.453125 0,-0.21875 0.015625,-0.3125 0.125,-0.75 C 3.890625,-1.71875 3.90625,-1.828125 4,-2.203125 L 4.359375,-3.59375 c 0.0625,-0.28125 0.0625,-0.296875 0.0625,-0.34375 0,-0.171875 -0.109375,-0.265625 -0.28125,-0.265625 -0.25,0 -0.390625,0.21875 -0.421875,0.4375 z M 3.078125,-1.1875 C 3.015625,-1 3.015625,-0.984375 2.875,-0.8125 2.4375,-0.265625 2.03125,-0.109375 1.75,-0.109375 c -0.5,0 -0.640625,-0.546875 -0.640625,-0.9375 0,-0.5 0.3125,-1.71875 0.546875,-2.1875 0.3125,-0.578125 0.75,-0.953125 1.15625,-0.953125 0.640625,0 0.78125,0.8125 0.78125,0.875 0,0.0625 -0.015625,0.125 -0.03125,0.171875 z m 0,0"
                 id="path89" />
            </g>
            <g
               id="use50"
               transform="translate(9.1402302,7.4720001)"
               style="stroke-width:3.52444">
              <path
                 style="stroke:none;stroke-width:3.52444"
                 d="m 2.03125,-0.015625 c 0,-0.65625 -0.25,-1.046875 -0.640625,-1.046875 -0.328125,0 -0.53125,0.25 -0.53125,0.53125 C 0.859375,-0.265625 1.0625,0 1.390625,0 1.5,0 1.640625,-0.046875 1.734375,-0.125 1.765625,-0.15625 1.78125,-0.15625 1.78125,-0.15625 c 0.015625,0 0.015625,0 0.015625,0.140625 0,0.75 -0.34375,1.34375 -0.671875,1.671875 -0.109375,0.109375 -0.109375,0.125 -0.109375,0.15625 0,0.078125 0.046875,0.109375 0.09375,0.109375 0.109375,0 0.921875,-0.765625 0.921875,-1.9375 z m 0,0"
                 id="path93" />
            </g>
          </g>
        </g>
        <g
           clip-path="url(#clipPath4875)"
           clip-rule="nonzero"
           id="g23841"
           style="stroke-width:12.4217">
          <g
             style="fill:#000000;fill-opacity:1;stroke-width:3.52444"
             id="g58">
            <g
               id="use56"
               transform="translate(13.571595,7.4720001)"
               style="stroke-width:3.52444">
              <path
                 style="stroke:none;stroke-width:3.52444"
                 d="m 3.65625,-3.984375 h 0.859375 c 0.203125,0 0.296875,0 0.296875,-0.203125 0,-0.109375 -0.09375,-0.109375 -0.265625,-0.109375 H 3.71875 L 3.921875,-5.4375 c 0.046875,-0.203125 0.1875,-0.90625 0.25,-1.03125 0.078125,-0.1875 0.25,-0.34375 0.46875,-0.34375 0.03125,0 0.296875,0 0.484375,0.1875 -0.4375,0.03125 -0.546875,0.390625 -0.546875,0.53125 0,0.234375 0.1875,0.359375 0.375,0.359375 C 5.21875,-5.734375 5.5,-5.96875 5.5,-6.34375 c 0,-0.453125 -0.453125,-0.6875 -0.859375,-0.6875 -0.34375,0 -0.96875,0.1875 -1.265625,1.171875 -0.0625,0.203125 -0.09375,0.3125 -0.328125,1.5625 h -0.6875 c -0.203125,0 -0.3125,0 -0.3125,0.1875 0,0.125 0.09375,0.125 0.28125,0.125 h 0.65625 L 2.25,-0.046875 c -0.1875,0.96875 -0.359375,1.875 -0.875,1.875 -0.046875,0 -0.28125,0 -0.484375,-0.1875 C 1.359375,1.609375 1.453125,1.25 1.453125,1.109375 1.453125,0.875 1.265625,0.75 1.078125,0.75 0.8125,0.75 0.53125,0.984375 0.53125,1.359375 c 0,0.4375 0.4375,0.6875 0.84375,0.6875 0.546875,0 0.953125,-0.59375 1.125,-0.96875 0.328125,-0.625 0.546875,-1.828125 0.5625,-1.90625 z m 0,0"
                 id="path97" />
            </g>
          </g>
        </g>
        <g
           clip-path="url(#clipPath3079)"
           clip-rule="nonzero"
           id="g23846"
           style="stroke-width:12.4217">
          <g
             style="fill:#000000;fill-opacity:1;stroke-width:3.52444"
             id="g64">
            <g
               id="use62"
               transform="translate(21.179001,7.4720001)"
               style="stroke-width:3.52444">
              <path
                 style="stroke:none;stroke-width:3.52444"
                 d="m 3.296875,2.390625 c 0,-0.03125 0,-0.046875 -0.171875,-0.21875 C 1.890625,0.921875 1.5625,-0.96875 1.5625,-2.5 c 0,-1.734375 0.375,-3.46875 1.609375,-4.703125 0.125,-0.125 0.125,-0.140625 0.125,-0.171875 0,-0.078125 -0.03125,-0.109375 -0.09375,-0.109375 -0.109375,0 -1,0.6875 -1.59375,1.953125 -0.5,1.09375 -0.625,2.203125 -0.625,3.03125 0,0.78125 0.109375,1.984375 0.65625,3.125 C 2.25,1.84375 3.09375,2.5 3.203125,2.5 c 0.0625,0 0.09375,-0.03125 0.09375,-0.109375 z m 0,0"
                 id="path101" />
            </g>
          </g>
        </g>
        <g
           style="fill:#000000;fill-opacity:1;stroke-width:3.52444"
           id="g23851">
          <g
             id="g23849"
             transform="translate(25.052999,7.4720001)"
             style="stroke-width:3.52444">
            <path
               style="stroke:none;stroke-width:3.52444"
               d="M 3.71875,-3.765625 C 3.53125,-4.140625 3.25,-4.40625 2.796875,-4.40625 c -1.15625,0 -2.390625,1.46875 -2.390625,2.921875 0,0.9375 0.546875,1.59375 1.3125,1.59375 0.203125,0 0.703125,-0.046875 1.296875,-0.75 0.078125,0.421875 0.4375,0.75 0.90625,0.75 0.359375,0 0.578125,-0.234375 0.75,-0.546875 0.15625,-0.359375 0.296875,-0.96875 0.296875,-0.984375 0,-0.109375 -0.09375,-0.109375 -0.125,-0.109375 -0.09375,0 -0.109375,0.046875 -0.140625,0.1875 -0.171875,0.640625 -0.34375,1.234375 -0.75,1.234375 -0.28125,0 -0.296875,-0.265625 -0.296875,-0.453125 0,-0.21875 0.015625,-0.3125 0.125,-0.75 C 3.890625,-1.71875 3.90625,-1.828125 4,-2.203125 L 4.359375,-3.59375 c 0.0625,-0.28125 0.0625,-0.296875 0.0625,-0.34375 0,-0.171875 -0.109375,-0.265625 -0.28125,-0.265625 -0.25,0 -0.390625,0.21875 -0.421875,0.4375 z M 3.078125,-1.1875 C 3.015625,-1 3.015625,-0.984375 2.875,-0.8125 2.4375,-0.265625 2.03125,-0.109375 1.75,-0.109375 c -0.5,0 -0.640625,-0.546875 -0.640625,-0.9375 0,-0.5 0.3125,-1.71875 0.546875,-2.1875 0.3125,-0.578125 0.75,-0.953125 1.15625,-0.953125 0.640625,0 0.78125,0.8125 0.78125,0.875 0,0.0625 -0.015625,0.125 -0.03125,0.171875 z m 0,0"
               id="path105" />
          </g>
        </g>
        <g
           clip-path="url(#clipPath7382)"
           clip-rule="nonzero"
           id="g78"
           style="stroke-width:12.4217">
          <g
             style="fill:#000000;fill-opacity:1;stroke-width:3.52444"
             id="g76">
            <g
               id="use72"
               transform="translate(30.319,7.4720001)"
               style="stroke-width:3.52444">
              <path
                 style="stroke:none;stroke-width:3.52444"
                 d="m 2.875,-2.5 c 0,-0.765625 -0.109375,-1.96875 -0.65625,-3.109375 -0.59375,-1.21875 -1.453125,-1.875 -1.546875,-1.875 -0.0625,0 -0.109375,0.046875 -0.109375,0.109375 0,0.03125 0,0.046875 0.1875,0.234375 0.984375,0.984375 1.546875,2.5625 1.546875,4.640625 0,1.71875 -0.359375,3.46875 -1.59375,4.71875 C 0.5625,2.34375 0.5625,2.359375 0.5625,2.390625 0.5625,2.453125 0.609375,2.5 0.671875,2.5 0.765625,2.5 1.671875,1.8125 2.25,0.546875 2.765625,-0.546875 2.875,-1.65625 2.875,-2.5 Z m 0,0"
                 id="path109" />
            </g>
            <g
               id="use74"
               transform="translate(34.193455,7.4720001)"
               style="stroke-width:3.52444">
              <path
                 style="stroke:none;stroke-width:3.52444"
                 d="m 2.875,-2.5 c 0,-0.765625 -0.109375,-1.96875 -0.65625,-3.109375 -0.59375,-1.21875 -1.453125,-1.875 -1.546875,-1.875 -0.0625,0 -0.109375,0.046875 -0.109375,0.109375 0,0.03125 0,0.046875 0.1875,0.234375 0.984375,0.984375 1.546875,2.5625 1.546875,4.640625 0,1.71875 -0.359375,3.46875 -1.59375,4.71875 C 0.5625,2.34375 0.5625,2.359375 0.5625,2.390625 0.5625,2.453125 0.609375,2.5 0.671875,2.5 0.765625,2.5 1.671875,1.8125 2.25,0.546875 2.765625,-0.546875 2.875,-1.65625 2.875,-2.5 Z m 0,0"
                 id="path113" />
            </g>
          </g>
        </g>
      </g>
    </g>
  </g>
</svg>
