<?xml version="1.0" encoding="UTF-8" standalone="no"?>
<!-- Created with Inkscape (http://www.inkscape.org/) -->

<svg
   width="297mm"
   height="210mm"
   viewBox="0 0 297 210"
   version="1.1"
   id="svg5"
   sodipodi:docname="LinearizationGraph.svg"
   inkscape:version="1.2.1 (1:1.2.1+202210291244+9c6d41e410)"
   xmlns:inkscape="http://www.inkscape.org/namespaces/inkscape"
   xmlns:sodipodi="http://sodipodi.sourceforge.net/DTD/sodipodi-0.dtd"
   xmlns="http://www.w3.org/2000/svg"
   xmlns:svg="http://www.w3.org/2000/svg">
  <sodipodi:namedview
     id="namedview7"
     pagecolor="#ffffff"
     bordercolor="#cccccc"
     borderopacity="1"
     inkscape:showpageshadow="0"
     inkscape:pageopacity="1"
     inkscape:pagecheckerboard="0"
     inkscape:deskcolor="#d1d1d1"
     inkscape:document-units="mm"
     showgrid="false"
     inkscape:zoom="2.1871106"
     inkscape:cx="242.10024"
     inkscape:cy="421.10353"
     inkscape:window-width="1920"
     inkscape:window-height="1030"
     inkscape:window-x="0"
     inkscape:window-y="50"
     inkscape:window-maximized="1"
     inkscape:current-layer="layer1"
     showguides="false" />
  <defs
     id="defs2">
    <inkscape:path-effect
       effect="bspline"
       id="path-effect2004"
       is_visible="true"
       lpeversion="1"
       weight="33.333333"
       steps="2"
       helper_size="0"
       apply_no_weight="true"
       apply_with_weight="true"
       only_selected="false" />
    <marker
       style="overflow:visible"
       id="Arrow1"
       refX="0"
       refY="0"
       orient="auto-start-reverse"
       inkscape:stockid="Arrow1"
       markerWidth="4.0606599"
       markerHeight="6.7071061"
       viewBox="0 0 4.0606602 6.7071068"
       inkscape:isstock="true"
       inkscape:collect="always"
       preserveAspectRatio="xMidYMid">
      <path
         style="fill:none;stroke:context-stroke;stroke-width:1;stroke-linecap:butt"
         d="M 3,-3 0,0 3,3"
         id="path5057"
         transform="rotate(180,0.125,0)"
         sodipodi:nodetypes="ccc" />
    </marker>
    <clipPath
       id="clipPath1995">
      <path
         d="M 0,0 H 5 V 6.226562 H 0 Z m 0,0"
         id="path696" />
    </clipPath>
    <clipPath
       id="clipPath2116">
      <path
         d="M 0,3 H 5 V 9.964844 H 0 Z m 0,0"
         id="path2743" />
    </clipPath>
    <clipPath
       id="clipPath6283">
      <path
         d="m 19,0 h 6 v 9.964844 h -6 z m 0,0"
         id="path7893" />
    </clipPath>
    <clipPath
       id="clipPath8226">
      <path
         d="m 27,0 h 3 v 9.964844 h -3 z m 0,0"
         id="path2753" />
    </clipPath>
    <clipPath
       id="clipPath5576">
      <path
         d="m 36,0 h 3 v 9.964844 h -3 z m 0,0"
         id="path5609" />
    </clipPath>
    <clipPath
       id="clipPath783">
      <path
         d="M 0,3 H 5 V 9.964844 H 0 Z m 0,0"
         id="path959" />
    </clipPath>
    <clipPath
       id="clipPath3920">
      <path
         d="m 27,0 h 4 v 9.964844 h -4 z m 0,0"
         id="path2544" />
    </clipPath>
    <clipPath
       id="clipPath6241">
      <path
         d="m 37,0 h 3 v 9.964844 h -3 z m 0,0"
         id="path324" />
    </clipPath>
    <clipPath
       id="clipPath2624">
      <path
         d="M 0,2 H 5 V 8.746094 H 0 Z m 0,0"
         id="path2913" />
    </clipPath>
    <clipPath
       id="clipPath4644">
      <path
         d="m 18,0 h 7.996094 V 7 H 18 Z m 0,0"
         id="path5566" />
    </clipPath>
    <clipPath
       id="clipPath9826">
      <path
         d="M 0,2 H 5 V 8.746094 H 0 Z m 0,0"
         id="path4053" />
    </clipPath>
    <clipPath
       id="clipPath2018">
      <path
         d="m 18,0 h 8.582031 V 7 H 18 Z m 0,0"
         id="path6491" />
    </clipPath>
    <clipPath
       id="clipPath4140">
      <path
         d="M 0,2 H 5 V 8.746094 H 0 Z m 0,0"
         id="path4220" />
    </clipPath>
    <clipPath
       id="clipPath7430">
      <path
         d="m 19,0 h 7.359375 V 8 H 19 Z m 0,0"
         id="path6596" />
    </clipPath>
    <clipPath
       id="clipPath9844">
      <path
         d="M 0,2 H 5 V 8.746094 H 0 Z m 0,0"
         id="path8011" />
    </clipPath>
    <clipPath
       id="clipPath9422">
      <path
         d="M 0,2 H 5 V 8.746094 H 0 Z m 0,0"
         id="path7095" />
    </clipPath>
    <clipPath
       id="clipPath6989">
      <path
         d="m 18,0 h 8.453125 V 7 H 18 Z m 0,0"
         id="path7757" />
    </clipPath>
    <clipPath
       id="clipPath2842">
      <path
         d="M 0,2 H 5 V 8.746094 H 0 Z m 0,0"
         id="path3618" />
    </clipPath>
    <clipPath
       id="clipPath5935">
      <path
         d="m 18,0 h 8.316406 V 7 H 18 Z m 0,0"
         id="path7654" />
    </clipPath>
    <clipPath
       id="clipPath6891">
      <path
         d="M 0,2 H 5 V 8.746094 H 0 Z m 0,0"
         id="path995" />
    </clipPath>
    <clipPath
       id="clipPath5118">
      <path
         d="m 19,0 h 7.359375 V 8 H 19 Z m 0,0"
         id="path1153" />
    </clipPath>
    <clipPath
       id="clipPath1701">
      <path
         d="M 0,2 H 5 V 8.746094 H 0 Z m 0,0"
         id="path6823" />
    </clipPath>
    <clipPath
       id="clipPath1900">
      <path
         d="m 18,0 h 9.617188 V 7 H 18 Z m 0,0"
         id="path189" />
    </clipPath>
    <clipPath
       id="clipPath2333">
      <path
         d="M 0,2 H 5 V 8.746094 H 0 Z m 0,0"
         id="path1473" />
    </clipPath>
    <clipPath
       id="clipPath4868">
      <path
         d="m 18,0 h 5.6875 V 7 H 18 Z m 0,0"
         id="path9182" />
    </clipPath>
    <clipPath
       id="clipPath7575">
      <path
         d="M 0,0 H 8 V 6.808594 H 0 Z m 0,0"
         id="path9921" />
    </clipPath>
    <clipPath
       id="clipPath2374">
      <path
         d="M 0,0 H 7.832031 V 6.808594 H 0 Z m 0,0"
         id="path3909" />
    </clipPath>
    <clipPath
       id="clipPath8216">
      <path
         d="M 0,0 H 8.523438 V 6.808594 H 0 Z m 0,0"
         id="path3338" />
    </clipPath>
    <clipPath
       id="clipPath354">
      <path
         d="M 0,0 H 7.789062 V 6.808594 H 0 Z m 0,0"
         id="path48" />
    </clipPath>
    <clipPath
       id="clipPath2756">
      <path
         d="M 0,0 H 7.832031 V 6.808594 H 0 Z m 0,0"
         id="path8675" />
    </clipPath>
    <clipPath
       id="clipPath1264">
      <path
         d="M 0,0 H 9 V 6.808594 H 0 Z m 0,0"
         id="path4399" />
    </clipPath>
    <clipPath
       id="clipPath1398">
      <path
         d="M 0,0 H 5 V 6.808594 H 0 Z m 0,0"
         id="path8013" />
    </clipPath>
    <clipPath
       id="clipPath6256">
      <path
         d="M 0,0 H 5.738281 V 6.917969 H 0 Z m 0,0"
         id="path42" />
    </clipPath>
  </defs>
  <g
     inkscape:label="Layer 1"
     inkscape:groupmode="layer"
     id="layer1">
    <path
       style="fill:none;stroke:#000000;stroke-width:0.264583px;stroke-linecap:butt;stroke-linejoin:miter;stroke-dasharray:0.529166, 0.264583;stroke-dashoffset:0;stroke-opacity:0.44"
       d="M 87.768054,129.49129 V 91.535408"
       id="path2340" />
    <path
       style="fill:none;stroke:#000000;stroke-width:0.264583px;stroke-linecap:butt;stroke-linejoin:miter;stroke-opacity:1;marker-start:url(#Arrow1);marker-end:url(#Arrow1)"
       d="m 63.841701,90.785883 v 38.809807 l 55.081269,0"
       id="path368"
       sodipodi:nodetypes="ccc" />
    <g
       inkscape:label=""
       transform="matrix(0.47776399,0,0,0.47776399,116.51901,127.76411)"
       id="g1554"
       style="stroke-width:2.09309">
      <g
         id="surface1"
         transform="matrix(0.352778,0,0,0.352778,-0.104731,0.0413632)"
         style="stroke-width:2.09309">
        <g
           style="fill:#000000;fill-opacity:1;stroke-width:2.09309"
           id="g14">
          <g
             id="use12"
             transform="translate(0,4.289)"
             style="stroke-width:2.09309">
            <path
               style="stroke:none;stroke-width:2.09309"
               d="M 3.328125,-3.015625 C 3.390625,-3.265625 3.625,-4.1875 4.3125,-4.1875 c 0.046875,0 0.296875,0 0.5,0.125 C 4.53125,-4 4.34375,-3.765625 4.34375,-3.515625 c 0,0.15625 0.109375,0.34375 0.375,0.34375 0.21875,0 0.53125,-0.171875 0.53125,-0.578125 0,-0.515625 -0.578125,-0.65625 -0.921875,-0.65625 -0.578125,0 -0.921875,0.53125 -1.046875,0.75 -0.25,-0.65625 -0.78125,-0.75 -1.078125,-0.75 -1.03125,0 -1.609375,1.28125 -1.609375,1.53125 0,0.109375 0.109375,0.109375 0.125,0.109375 0.078125,0 0.109375,-0.03125 0.125,-0.109375 0.34375,-1.0625 1,-1.3125 1.34375,-1.3125 0.1875,0 0.53125,0.09375 0.53125,0.671875 0,0.3125 -0.171875,0.96875 -0.53125,2.375 -0.15625,0.609375 -0.515625,1.03125 -0.953125,1.03125 -0.0625,0 -0.28125,0 -0.5,-0.125 0.25,-0.0625 0.46875,-0.265625 0.46875,-0.546875 0,-0.265625 -0.21875,-0.34375 -0.359375,-0.34375 -0.3125,0 -0.546875,0.25 -0.546875,0.578125 0,0.453125 0.484375,0.65625 0.921875,0.65625 0.671875,0 1.03125,-0.703125 1.046875,-0.75 0.125,0.359375 0.484375,0.75 1.078125,0.75 1.03125,0 1.59375,-1.28125 1.59375,-1.53125 0,-0.109375 -0.078125,-0.109375 -0.109375,-0.109375 -0.09375,0 -0.109375,0.046875 -0.140625,0.109375 -0.328125,1.078125 -1,1.3125 -1.3125,1.3125 -0.390625,0 -0.546875,-0.3125 -0.546875,-0.65625 0,-0.21875 0.046875,-0.4375 0.15625,-0.875 z m 0,0"
               id="path21" />
          </g>
        </g>
      </g>
    </g>
    <g
       inkscape:label=""
       transform="matrix(0.47776399,0,0,0.47776399,65.223219,92.072417)"
       id="g1603"
       style="stroke-width:2.09309">
      <g
         id="g1601"
         transform="matrix(0.352778,0,0,0.352778,-0.104731,0.0410104)"
         style="stroke-width:2.09309">
        <g
           clip-path="url(#clipPath1995)"
           clip-rule="nonzero"
           id="g19"
           style="stroke-width:2.77733">
          <g
             style="fill:#000000;fill-opacity:1;stroke-width:2.09309"
             id="g17">
            <g
               id="use15"
               transform="translate(0,4.29)"
               style="stroke-width:2.09309">
              <path
                 style="stroke:none;stroke-width:2.09309"
                 d="m 4.84375,-3.796875 c 0.046875,-0.140625 0.046875,-0.15625 0.046875,-0.234375 0,-0.171875 -0.140625,-0.265625 -0.296875,-0.265625 -0.09375,0 -0.25,0.0625 -0.34375,0.203125 -0.015625,0.0625 -0.109375,0.359375 -0.140625,0.546875 -0.078125,0.25 -0.140625,0.53125 -0.203125,0.796875 l -0.453125,1.796875 c -0.03125,0.140625 -0.46875,0.84375 -1.125,0.84375 -0.5,0 -0.609375,-0.4375 -0.609375,-0.8125 C 1.71875,-1.375 1.890625,-2 2.21875,-2.875 2.375,-3.28125 2.421875,-3.390625 2.421875,-3.59375 c 0,-0.4375 -0.3125,-0.8125 -0.8125,-0.8125 -0.953125,0 -1.3125,1.453125 -1.3125,1.53125 0,0.109375 0.09375,0.109375 0.109375,0.109375 0.109375,0 0.109375,-0.03125 0.15625,-0.1875 0.28125,-0.9375 0.671875,-1.234375 1.015625,-1.234375 0.078125,0 0.25,0 0.25,0.3125 0,0.25 -0.109375,0.515625 -0.171875,0.703125 -0.40625,1.0625 -0.578125,1.625 -0.578125,2.09375 0,0.890625 0.625,1.1875 1.21875,1.1875 0.390625,0 0.71875,-0.171875 1,-0.453125 -0.125,0.515625 -0.25,1.015625 -0.640625,1.546875 -0.265625,0.328125 -0.640625,0.625 -1.09375,0.625 -0.140625,0 -0.59375,-0.03125 -0.765625,-0.421875 0.15625,0 0.296875,0 0.421875,-0.125 C 1.328125,1.203125 1.421875,1.0625 1.421875,0.875 1.421875,0.5625 1.15625,0.53125 1.0625,0.53125 0.828125,0.53125 0.5,0.6875 0.5,1.171875 c 0,0.5 0.4375,0.875 1.0625,0.875 1.015625,0 2.046875,-0.90625 2.328125,-2.03125 z m 0,0"
                 id="path26" />
            </g>
          </g>
        </g>
      </g>
    </g>
    <path
       style="fill:none;stroke:#000000;stroke-width:0.265;stroke-linecap:butt;stroke-linejoin:miter;stroke-dasharray:none;stroke-opacity:1;marker-start:url(#Arrow1);marker-end:url(#Arrow1)"
       d="m 63.947097,115.80124 c 8.085938,-0.73136 16.171452,-1.46268 22.030144,-4.71235 5.858693,-3.24967 9.490305,-9.0175 13.122032,-14.7855"
       id="path2002"
       inkscape:path-effect="#path-effect2004"
       inkscape:original-d="m 63.947097,115.80124 c 8.085964,-0.73107 16.171478,-1.46239 24.257104,-2.19401 3.63204,-5.76782 7.263656,-11.53564 10.895072,-17.30384"
       sodipodi:nodetypes="ccc" />
    <circle
       style="fill:#000000;fill-opacity:1;stroke:none;stroke-width:0.14"
       id="path2214"
       cx="87.734123"
       cy="109.99744"
       r="0.50220472" />
    <path
       style="fill:none;stroke:#000000;stroke-width:0.2;stroke-linecap:butt;stroke-linejoin:miter;stroke-dasharray:none;stroke-opacity:1;marker-start:url(#Arrow1);marker-end:url(#Arrow1)"
       d="M 63.902586,125.08055 111.3839,95.156115"
       id="path2288" />
    <path
       style="fill:none;stroke:#000000;stroke-width:0.264583px;stroke-linecap:butt;stroke-linejoin:miter;stroke-dasharray:0.529166, 0.264583;stroke-dashoffset:0;stroke-opacity:0.44"
       d="M 94.601601,129.49129 V 91.53541"
       id="path2340-6" />
    <path
       style="fill:none;stroke:#000000;stroke-width:0.264583px;stroke-linecap:butt;stroke-linejoin:miter;stroke-dasharray:0.529165, 0.264583;stroke-dashoffset:0;stroke-opacity:0.44"
       d="M 117.81872,109.99744 H 63.786454"
       id="path2340-6-7" />
    <path
       style="fill:none;stroke:#000000;stroke-width:0.264583px;stroke-linecap:butt;stroke-linejoin:miter;stroke-dasharray:0.529165, 0.264583;stroke-dashoffset:0;stroke-opacity:0.44"
       d="M 117.81872,105.77855 H 63.786452"
       id="path2340-6-7-5" />
    <path
       style="fill:none;stroke:#000000;stroke-width:0.264583px;stroke-linecap:butt;stroke-linejoin:miter;stroke-dasharray:0.529165, 0.264583;stroke-dashoffset:0;stroke-opacity:0.44"
       d="M 117.81872,102.82855 H 63.786452"
       id="path2340-6-7-3" />
    <g
       inkscape:label=""
       transform="matrix(0.41701476,0,0,0.41701476,97.027158,94.106609)"
       id="g3247"
       style="stroke-width:2.398">
      <g
         id="g3245"
         transform="matrix(0.352778,0,0,0.352778,-0.104731,0.00436558)"
         style="stroke-width:2.398">
        <g
           clip-path="url(#clipPath2116)"
           clip-rule="nonzero"
           id="g46"
           style="stroke-width:4.11944">
          <g
             style="fill:#000000;fill-opacity:1;stroke-width:2.398"
             id="g44">
            <g
               id="use42"
               transform="translate(0,7.4720001)"
               style="stroke-width:2.398">
              <path
                 style="stroke:none;stroke-width:2.398"
                 d="m 4.84375,-3.796875 c 0.046875,-0.140625 0.046875,-0.15625 0.046875,-0.234375 0,-0.171875 -0.140625,-0.265625 -0.296875,-0.265625 -0.09375,0 -0.25,0.0625 -0.34375,0.203125 -0.015625,0.0625 -0.109375,0.359375 -0.140625,0.546875 -0.078125,0.25 -0.140625,0.53125 -0.203125,0.796875 l -0.453125,1.796875 c -0.03125,0.140625 -0.46875,0.84375 -1.125,0.84375 -0.5,0 -0.609375,-0.4375 -0.609375,-0.8125 C 1.71875,-1.375 1.890625,-2 2.21875,-2.875 2.375,-3.28125 2.421875,-3.390625 2.421875,-3.59375 c 0,-0.4375 -0.3125,-0.8125 -0.8125,-0.8125 -0.953125,0 -1.3125,1.453125 -1.3125,1.53125 0,0.109375 0.09375,0.109375 0.109375,0.109375 0.109375,0 0.109375,-0.03125 0.15625,-0.1875 0.28125,-0.9375 0.671875,-1.234375 1.015625,-1.234375 0.078125,0 0.25,0 0.25,0.3125 0,0.25 -0.109375,0.515625 -0.171875,0.703125 -0.40625,1.0625 -0.578125,1.625 -0.578125,2.09375 0,0.890625 0.625,1.1875 1.21875,1.1875 0.390625,0 0.71875,-0.171875 1,-0.453125 -0.125,0.515625 -0.25,1.015625 -0.640625,1.546875 -0.265625,0.328125 -0.640625,0.625 -1.09375,0.625 -0.140625,0 -0.59375,-0.03125 -0.765625,-0.421875 0.15625,0 0.296875,0 0.421875,-0.125 C 1.328125,1.203125 1.421875,1.0625 1.421875,0.875 1.421875,0.5625 1.15625,0.53125 1.0625,0.53125 0.828125,0.53125 0.5,0.6875 0.5,1.171875 c 0,0.5 0.4375,0.875 1.0625,0.875 1.015625,0 2.046875,-0.90625 2.328125,-2.03125 z m 0,0"
                 id="path79" />
            </g>
          </g>
        </g>
        <g
           style="fill:#000000;fill-opacity:1;stroke-width:2.398"
           id="g50">
          <g
             id="use48"
             transform="translate(8.0089998,7.4720001)"
             style="stroke-width:2.398">
            <path
               style="stroke:none;stroke-width:2.398"
               d="m 6.84375,-3.265625 c 0.15625,0 0.34375,0 0.34375,-0.1875 C 7.1875,-3.65625 7,-3.65625 6.859375,-3.65625 h -5.96875 c -0.140625,0 -0.328125,0 -0.328125,0.203125 0,0.1875 0.1875,0.1875 0.328125,0.1875 z m 0.015625,1.9375 c 0.140625,0 0.328125,0 0.328125,-0.203125 0,-0.1875 -0.1875,-0.1875 -0.34375,-0.1875 H 0.890625 c -0.140625,0 -0.328125,0 -0.328125,0.1875 0,0.203125 0.1875,0.203125 0.328125,0.203125 z m 0,0"
               id="path83" />
          </g>
        </g>
        <g
           clip-path="url(#clipPath6283)"
           clip-rule="nonzero"
           id="g56"
           style="stroke-width:4.11944">
          <g
             style="fill:#000000;fill-opacity:1;stroke-width:2.398"
             id="g54">
            <g
               id="use52"
               transform="translate(18.525,7.4720001)"
               style="stroke-width:2.398">
              <path
                 style="stroke:none;stroke-width:2.398"
                 d="m 3.65625,-3.984375 h 0.859375 c 0.203125,0 0.296875,0 0.296875,-0.203125 0,-0.109375 -0.09375,-0.109375 -0.265625,-0.109375 H 3.71875 L 3.921875,-5.4375 c 0.046875,-0.203125 0.1875,-0.90625 0.25,-1.03125 0.078125,-0.1875 0.25,-0.34375 0.46875,-0.34375 0.03125,0 0.296875,0 0.484375,0.1875 -0.4375,0.03125 -0.546875,0.390625 -0.546875,0.53125 0,0.234375 0.1875,0.359375 0.375,0.359375 C 5.21875,-5.734375 5.5,-5.96875 5.5,-6.34375 c 0,-0.453125 -0.453125,-0.6875 -0.859375,-0.6875 -0.34375,0 -0.96875,0.1875 -1.265625,1.171875 -0.0625,0.203125 -0.09375,0.3125 -0.328125,1.5625 h -0.6875 c -0.203125,0 -0.3125,0 -0.3125,0.1875 0,0.125 0.09375,0.125 0.28125,0.125 h 0.65625 L 2.25,-0.046875 c -0.1875,0.96875 -0.359375,1.875 -0.875,1.875 -0.046875,0 -0.28125,0 -0.484375,-0.1875 C 1.359375,1.609375 1.453125,1.25 1.453125,1.109375 1.453125,0.875 1.265625,0.75 1.078125,0.75 0.8125,0.75 0.53125,0.984375 0.53125,1.359375 c 0,0.4375 0.4375,0.6875 0.84375,0.6875 0.546875,0 0.953125,-0.59375 1.125,-0.96875 0.328125,-0.625 0.546875,-1.828125 0.5625,-1.90625 z m 0,0"
                 id="path87" />
            </g>
          </g>
        </g>
        <g
           clip-path="url(#clipPath8226)"
           clip-rule="nonzero"
           id="g62"
           style="stroke-width:4.11944">
          <g
             style="fill:#000000;fill-opacity:1;stroke-width:2.398"
             id="g60">
            <g
               id="use58"
               transform="translate(26.136,7.4720001)"
               style="stroke-width:2.398">
              <path
                 style="stroke:none;stroke-width:2.398"
                 d="m 3.296875,2.390625 c 0,-0.03125 0,-0.046875 -0.171875,-0.21875 C 1.890625,0.921875 1.5625,-0.96875 1.5625,-2.5 c 0,-1.734375 0.375,-3.46875 1.609375,-4.703125 0.125,-0.125 0.125,-0.140625 0.125,-0.171875 0,-0.078125 -0.03125,-0.109375 -0.09375,-0.109375 -0.109375,0 -1,0.6875 -1.59375,1.953125 -0.5,1.09375 -0.625,2.203125 -0.625,3.03125 0,0.78125 0.109375,1.984375 0.65625,3.125 C 2.25,1.84375 3.09375,2.5 3.203125,2.5 c 0.0625,0 0.09375,-0.03125 0.09375,-0.109375 z m 0,0"
                 id="path91" />
            </g>
          </g>
        </g>
        <g
           style="fill:#000000;fill-opacity:1;stroke-width:2.398"
           id="g66">
          <g
             id="use64"
             transform="translate(30.01,7.4720001)"
             style="stroke-width:2.398">
            <path
               style="stroke:none;stroke-width:2.398"
               d="M 3.328125,-3.015625 C 3.390625,-3.265625 3.625,-4.1875 4.3125,-4.1875 c 0.046875,0 0.296875,0 0.5,0.125 C 4.53125,-4 4.34375,-3.765625 4.34375,-3.515625 c 0,0.15625 0.109375,0.34375 0.375,0.34375 0.21875,0 0.53125,-0.171875 0.53125,-0.578125 0,-0.515625 -0.578125,-0.65625 -0.921875,-0.65625 -0.578125,0 -0.921875,0.53125 -1.046875,0.75 -0.25,-0.65625 -0.78125,-0.75 -1.078125,-0.75 -1.03125,0 -1.609375,1.28125 -1.609375,1.53125 0,0.109375 0.109375,0.109375 0.125,0.109375 0.078125,0 0.109375,-0.03125 0.125,-0.109375 0.34375,-1.0625 1,-1.3125 1.34375,-1.3125 0.1875,0 0.53125,0.09375 0.53125,0.671875 0,0.3125 -0.171875,0.96875 -0.53125,2.375 -0.15625,0.609375 -0.515625,1.03125 -0.953125,1.03125 -0.0625,0 -0.28125,0 -0.5,-0.125 0.25,-0.0625 0.46875,-0.265625 0.46875,-0.546875 0,-0.265625 -0.21875,-0.34375 -0.359375,-0.34375 -0.3125,0 -0.546875,0.25 -0.546875,0.578125 0,0.453125 0.484375,0.65625 0.921875,0.65625 0.671875,0 1.03125,-0.703125 1.046875,-0.75 0.125,0.359375 0.484375,0.75 1.078125,0.75 1.03125,0 1.59375,-1.28125 1.59375,-1.53125 0,-0.109375 -0.078125,-0.109375 -0.109375,-0.109375 -0.09375,0 -0.109375,0.046875 -0.140625,0.109375 -0.328125,1.078125 -1,1.3125 -1.3125,1.3125 -0.390625,0 -0.546875,-0.3125 -0.546875,-0.65625 0,-0.21875 0.046875,-0.4375 0.15625,-0.875 z m 0,0"
               id="path95" />
          </g>
        </g>
        <g
           clip-path="url(#clipPath5576)"
           clip-rule="nonzero"
           id="g72"
           style="stroke-width:4.11944">
          <g
             style="fill:#000000;fill-opacity:1;stroke-width:2.398"
             id="g70">
            <g
               id="use68"
               transform="translate(35.703999,7.4720001)"
               style="stroke-width:2.398">
              <path
                 style="stroke:none;stroke-width:2.398"
                 d="m 2.875,-2.5 c 0,-0.765625 -0.109375,-1.96875 -0.65625,-3.109375 -0.59375,-1.21875 -1.453125,-1.875 -1.546875,-1.875 -0.0625,0 -0.109375,0.046875 -0.109375,0.109375 0,0.03125 0,0.046875 0.1875,0.234375 0.984375,0.984375 1.546875,2.5625 1.546875,4.640625 0,1.71875 -0.359375,3.46875 -1.59375,4.71875 C 0.5625,2.34375 0.5625,2.359375 0.5625,2.390625 0.5625,2.453125 0.609375,2.5 0.671875,2.5 0.765625,2.5 1.671875,1.8125 2.25,0.546875 2.765625,-0.546875 2.875,-1.65625 2.875,-2.5 Z m 0,0"
                 id="path99" />
            </g>
          </g>
        </g>
      </g>
    </g>
    <g
       inkscape:label=""
       transform="matrix(0.41701476,0,0,0.41701476,108.58928,93.217986)"
       id="g3438"
       style="stroke-width:2.398">
      <g
         id="g3436"
         transform="matrix(0.352778,0,0,0.352778,-0.104731,0.00436558)"
         style="stroke-width:2.398">
        <g
           clip-path="url(#clipPath783)"
           clip-rule="nonzero"
           id="g43"
           style="stroke-width:4.11944">
          <g
             style="fill:#000000;fill-opacity:1;stroke-width:2.398"
             id="g41">
            <g
               id="use39"
               transform="translate(0,7.4720001)"
               style="stroke-width:2.398">
              <path
                 style="stroke:none;stroke-width:2.398"
                 d="m 4.84375,-3.796875 c 0.046875,-0.140625 0.046875,-0.15625 0.046875,-0.234375 0,-0.171875 -0.140625,-0.265625 -0.296875,-0.265625 -0.09375,0 -0.25,0.0625 -0.34375,0.203125 -0.015625,0.0625 -0.109375,0.359375 -0.140625,0.546875 -0.078125,0.25 -0.140625,0.53125 -0.203125,0.796875 l -0.453125,1.796875 c -0.03125,0.140625 -0.46875,0.84375 -1.125,0.84375 -0.5,0 -0.609375,-0.4375 -0.609375,-0.8125 C 1.71875,-1.375 1.890625,-2 2.21875,-2.875 2.375,-3.28125 2.421875,-3.390625 2.421875,-3.59375 c 0,-0.4375 -0.3125,-0.8125 -0.8125,-0.8125 -0.953125,0 -1.3125,1.453125 -1.3125,1.53125 0,0.109375 0.09375,0.109375 0.109375,0.109375 0.109375,0 0.109375,-0.03125 0.15625,-0.1875 0.28125,-0.9375 0.671875,-1.234375 1.015625,-1.234375 0.078125,0 0.25,0 0.25,0.3125 0,0.25 -0.109375,0.515625 -0.171875,0.703125 -0.40625,1.0625 -0.578125,1.625 -0.578125,2.09375 0,0.890625 0.625,1.1875 1.21875,1.1875 0.390625,0 0.71875,-0.171875 1,-0.453125 -0.125,0.515625 -0.25,1.015625 -0.640625,1.546875 -0.265625,0.328125 -0.640625,0.625 -1.09375,0.625 -0.140625,0 -0.59375,-0.03125 -0.765625,-0.421875 0.15625,0 0.296875,0 0.421875,-0.125 C 1.328125,1.203125 1.421875,1.0625 1.421875,0.875 1.421875,0.5625 1.15625,0.53125 1.0625,0.53125 0.828125,0.53125 0.5,0.6875 0.5,1.171875 c 0,0.5 0.4375,0.875 1.0625,0.875 1.015625,0 2.046875,-0.90625 2.328125,-2.03125 z m 0,0"
                 id="path74" />
            </g>
          </g>
        </g>
        <g
           style="fill:#000000;fill-opacity:1;stroke-width:2.398"
           id="g47">
          <g
             id="use45"
             transform="translate(8.0089998,7.4720001)"
             style="stroke-width:2.398">
            <path
               style="stroke:none;stroke-width:2.398"
               d="m 6.84375,-3.265625 c 0.15625,0 0.34375,0 0.34375,-0.1875 C 7.1875,-3.65625 7,-3.65625 6.859375,-3.65625 h -5.96875 c -0.140625,0 -0.328125,0 -0.328125,0.203125 0,0.1875 0.1875,0.1875 0.328125,0.1875 z m 0.015625,1.9375 c 0.140625,0 0.328125,0 0.328125,-0.203125 0,-0.1875 -0.1875,-0.1875 -0.34375,-0.1875 H 0.890625 c -0.140625,0 -0.328125,0 -0.328125,0.1875 0,0.203125 0.1875,0.203125 0.328125,0.203125 z m 0,0"
               id="path78" />
          </g>
        </g>
        <g
           style="fill:#000000;fill-opacity:1;stroke-width:2.398"
           id="g51">
          <g
             id="use49"
             transform="translate(18.525,7.4720001)"
             style="stroke-width:2.398">
            <path
               style="stroke:none;stroke-width:2.398"
               d="M 3.734375,-6.03125 C 3.8125,-6.390625 3.84375,-6.5 4.78125,-6.5 c 0.296875,0 0.375,0 0.375,-0.1875 0,-0.125 -0.109375,-0.125 -0.15625,-0.125 -0.328125,0 -1.140625,0.03125 -1.46875,0.03125 -0.296875,0 -1.03125,-0.03125 -1.328125,-0.03125 -0.0625,0 -0.1875,0 -0.1875,0.203125 0,0.109375 0.09375,0.109375 0.28125,0.109375 0.015625,0 0.203125,0 0.375,0.015625 0.171875,0.03125 0.265625,0.03125 0.265625,0.171875 0,0.03125 0,0.0625 -0.03125,0.1875 L 1.5625,-0.78125 c -0.09375,0.390625 -0.109375,0.46875 -0.90625,0.46875 -0.171875,0 -0.265625,0 -0.265625,0.203125 C 0.390625,0 0.484375,0 0.65625,0 h 4.625 C 5.515625,0 5.515625,0 5.578125,-0.171875 L 6.375,-2.328125 c 0.03125,-0.109375 0.03125,-0.125 0.03125,-0.140625 0,-0.03125 -0.03125,-0.109375 -0.109375,-0.109375 -0.09375,0 -0.109375,0.0625 -0.171875,0.21875 -0.34375,0.90625 -0.78125,2.046875 -2.5,2.046875 H 2.6875 c -0.140625,0 -0.171875,0 -0.21875,0 -0.109375,-0.015625 -0.140625,-0.03125 -0.140625,-0.109375 0,-0.03125 0,-0.046875 0.046875,-0.21875 z m 0,0"
               id="path82" />
          </g>
        </g>
        <g
           clip-path="url(#clipPath3920)"
           clip-rule="nonzero"
           id="g57"
           style="stroke-width:4.11944">
          <g
             style="fill:#000000;fill-opacity:1;stroke-width:2.398"
             id="g55">
            <g
               id="use53"
               transform="translate(26.966,7.4720001)"
               style="stroke-width:2.398">
              <path
                 style="stroke:none;stroke-width:2.398"
                 d="m 3.296875,2.390625 c 0,-0.03125 0,-0.046875 -0.171875,-0.21875 C 1.890625,0.921875 1.5625,-0.96875 1.5625,-2.5 c 0,-1.734375 0.375,-3.46875 1.609375,-4.703125 0.125,-0.125 0.125,-0.140625 0.125,-0.171875 0,-0.078125 -0.03125,-0.109375 -0.09375,-0.109375 -0.109375,0 -1,0.6875 -1.59375,1.953125 -0.5,1.09375 -0.625,2.203125 -0.625,3.03125 0,0.78125 0.109375,1.984375 0.65625,3.125 C 2.25,1.84375 3.09375,2.5 3.203125,2.5 c 0.0625,0 0.09375,-0.03125 0.09375,-0.109375 z m 0,0"
                 id="path86" />
            </g>
          </g>
        </g>
        <g
           style="fill:#000000;fill-opacity:1;stroke-width:2.398"
           id="g61">
          <g
             id="use59"
             transform="translate(30.84,7.4720001)"
             style="stroke-width:2.398">
            <path
               style="stroke:none;stroke-width:2.398"
               d="M 3.328125,-3.015625 C 3.390625,-3.265625 3.625,-4.1875 4.3125,-4.1875 c 0.046875,0 0.296875,0 0.5,0.125 C 4.53125,-4 4.34375,-3.765625 4.34375,-3.515625 c 0,0.15625 0.109375,0.34375 0.375,0.34375 0.21875,0 0.53125,-0.171875 0.53125,-0.578125 0,-0.515625 -0.578125,-0.65625 -0.921875,-0.65625 -0.578125,0 -0.921875,0.53125 -1.046875,0.75 -0.25,-0.65625 -0.78125,-0.75 -1.078125,-0.75 -1.03125,0 -1.609375,1.28125 -1.609375,1.53125 0,0.109375 0.109375,0.109375 0.125,0.109375 0.078125,0 0.109375,-0.03125 0.125,-0.109375 0.34375,-1.0625 1,-1.3125 1.34375,-1.3125 0.1875,0 0.53125,0.09375 0.53125,0.671875 0,0.3125 -0.171875,0.96875 -0.53125,2.375 -0.15625,0.609375 -0.515625,1.03125 -0.953125,1.03125 -0.0625,0 -0.28125,0 -0.5,-0.125 0.25,-0.0625 0.46875,-0.265625 0.46875,-0.546875 0,-0.265625 -0.21875,-0.34375 -0.359375,-0.34375 -0.3125,0 -0.546875,0.25 -0.546875,0.578125 0,0.453125 0.484375,0.65625 0.921875,0.65625 0.671875,0 1.03125,-0.703125 1.046875,-0.75 0.125,0.359375 0.484375,0.75 1.078125,0.75 1.03125,0 1.59375,-1.28125 1.59375,-1.53125 0,-0.109375 -0.078125,-0.109375 -0.109375,-0.109375 -0.09375,0 -0.109375,0.046875 -0.140625,0.109375 -0.328125,1.078125 -1,1.3125 -1.3125,1.3125 -0.390625,0 -0.546875,-0.3125 -0.546875,-0.65625 0,-0.21875 0.046875,-0.4375 0.15625,-0.875 z m 0,0"
               id="path90" />
          </g>
        </g>
        <g
           clip-path="url(#clipPath6241)"
           clip-rule="nonzero"
           id="g67"
           style="stroke-width:4.11944">
          <g
             style="fill:#000000;fill-opacity:1;stroke-width:2.398"
             id="g65">
            <g
               id="use63"
               transform="translate(36.534,7.4720001)"
               style="stroke-width:2.398">
              <path
                 style="stroke:none;stroke-width:2.398"
                 d="m 2.875,-2.5 c 0,-0.765625 -0.109375,-1.96875 -0.65625,-3.109375 -0.59375,-1.21875 -1.453125,-1.875 -1.546875,-1.875 -0.0625,0 -0.109375,0.046875 -0.109375,0.109375 0,0.03125 0,0.046875 0.1875,0.234375 0.984375,0.984375 1.546875,2.5625 1.546875,4.640625 0,1.71875 -0.359375,3.46875 -1.59375,4.71875 C 0.5625,2.34375 0.5625,2.359375 0.5625,2.390625 0.5625,2.453125 0.609375,2.5 0.671875,2.5 0.765625,2.5 1.671875,1.8125 2.25,0.546875 2.765625,-0.546875 2.875,-1.65625 2.875,-2.5 Z m 0,0"
                 id="path94" />
            </g>
          </g>
        </g>
      </g>
    </g>
    <path
       style="fill:none;stroke:#000000;stroke-width:0.18;stroke-linecap:butt;stroke-linejoin:miter;stroke-dasharray:none;stroke-opacity:1"
       d="m 119.51425,102.76999 h -0.49604"
       id="path3479" />
    <path
       style="fill:none;stroke:#000000;stroke-width:0.179999;stroke-linecap:butt;stroke-linejoin:miter;stroke-dasharray:none;stroke-opacity:1"
       d="m 119.42424,102.67999 v 7.36807"
       id="path3477-6" />
    <path
       style="fill:none;stroke:#000000;stroke-width:0.18;stroke-linecap:butt;stroke-linejoin:miter;stroke-dasharray:none;stroke-opacity:1"
       d="m 119.51425,109.97409 h -0.49604"
       id="path3479-5-9" />
    <path
       style="fill:none;stroke:#000000;stroke-width:0.18;stroke-linecap:butt;stroke-linejoin:miter;stroke-dasharray:none;stroke-opacity:1"
       d="m 106.858,105.94141 v 3.88146"
       id="path3477-6-1" />
    <path
       style="fill:none;stroke:#000000;stroke-width:0.18;stroke-linecap:butt;stroke-linejoin:miter;stroke-dasharray:none;stroke-opacity:1"
       d="m 106.94801,106.03141 h -0.49604"
       id="path3479-2-2" />
    <path
       style="fill:none;stroke:#000000;stroke-width:0.18;stroke-linecap:butt;stroke-linejoin:miter;stroke-dasharray:none;stroke-opacity:1"
       d="m 106.94801,109.73287 h -0.49604"
       id="path3479-5-9-7" />
    <path
       style="fill:none;stroke:#000000;stroke-width:0.18;stroke-linecap:butt;stroke-linejoin:miter;stroke-dasharray:none;stroke-opacity:1"
       d="m 106.858,102.9741 v 2.63166"
       id="path3477-60"
       sodipodi:nodetypes="cc" />
    <path
       style="fill:none;stroke:#000000;stroke-width:0.18;stroke-linecap:butt;stroke-linejoin:miter;stroke-dasharray:none;stroke-opacity:1"
       d="m 106.948,103.0641 h -0.49604"
       id="path3479-6" />
    <path
       style="fill:none;stroke:#000000;stroke-width:0.18;stroke-linecap:butt;stroke-linejoin:miter;stroke-dasharray:none;stroke-opacity:1"
       d="m 106.948,105.51576 h -0.49604"
       id="path3479-5-2" />
    <path
       style="fill:none;stroke:#000000;stroke-width:0.18;stroke-linecap:butt;stroke-linejoin:miter;stroke-dasharray:none;stroke-opacity:1"
       d="m 94.195704,130.61714 v -0.41329"
       id="path3479-61" />
    <path
       style="fill:none;stroke:#000000;stroke-width:0.179999;stroke-linecap:butt;stroke-linejoin:miter;stroke-dasharray:none;stroke-opacity:1"
       d="M 94.281701,130.53115 H 88.191348"
       id="path3477-6-8" />
    <path
       style="fill:none;stroke:#000000;stroke-width:0.18;stroke-linecap:butt;stroke-linejoin:miter;stroke-dasharray:none;stroke-opacity:1"
       d="m 88.277344,130.61714 v -0.41329"
       id="path3479-5-9-79" />
    <path
       style="fill:none;stroke:#000000;stroke-width:0.18;stroke-linecap:butt;stroke-linejoin:miter;stroke-dasharray:none;stroke-opacity:1"
       d="m 94.297099,117.53272 v 0.43259"
       id="path3479-61-2" />
    <path
       style="fill:none;stroke:#000000;stroke-width:0.179999;stroke-linecap:butt;stroke-linejoin:miter;stroke-dasharray:none;stroke-opacity:1"
       d="M 94.387099,117.62272 H 88.013185"
       id="path3477-6-8-0" />
    <path
       style="fill:none;stroke:#000000;stroke-width:0.18;stroke-linecap:butt;stroke-linejoin:miter;stroke-dasharray:none;stroke-opacity:1"
       d="m 88.103185,117.53272 v 0.43259"
       id="path3479-5-9-79-2" />
    <g
       inkscape:label=""
       transform="matrix(0.59256964,0,0,0.59256964,61.541785,102.08219)"
       id="g7546"
       style="stroke-width:1.68757">
      <g
         id="g7544"
         transform="matrix(0.352778,0,0,0.352778,-0.121267,0.117343)"
         style="stroke-width:1.68757">
        <g
           style="fill:#000000;fill-opacity:1;stroke-width:1.68757"
           id="g7542">
          <g
             id="g7540"
             transform="translate(0,6.8080001)"
             style="stroke-width:1.68757">
            <path
               style="stroke:none;stroke-width:1.68757"
               d="M 1.78125,-1.140625 C 1.390625,-0.484375 1,-0.34375 0.5625,-0.3125 0.4375,-0.296875 0.34375,-0.296875 0.34375,-0.109375 0.34375,-0.046875 0.40625,0 0.484375,0 0.75,0 1.0625,-0.03125 1.328125,-0.03125 c 0.34375,0 0.6875,0.03125 1,0.03125 0.0625,0 0.1875,0 0.1875,-0.1875 0,-0.109375 -0.078125,-0.125 -0.15625,-0.125 -0.21875,-0.015625 -0.46875,-0.09375 -0.46875,-0.34375 0,-0.125 0.0625,-0.234375 0.140625,-0.375 l 0.765625,-1.265625 h 2.5 c 0.015625,0.203125 0.15625,1.5625 0.15625,1.65625 0,0.296875 -0.515625,0.328125 -0.71875,0.328125 C 4.59375,-0.3125 4.5,-0.3125 4.5,-0.109375 4.5,0 4.609375,0 4.640625,0 5.046875,0 5.46875,-0.03125 5.875,-0.03125 6.125,-0.03125 6.765625,0 7.015625,0 7.0625,0 7.1875,0 7.1875,-0.203125 7.1875,-0.3125 7.09375,-0.3125 6.953125,-0.3125 6.34375,-0.3125 6.34375,-0.375 6.3125,-0.671875 l -0.609375,-6.21875 c -0.015625,-0.203125 -0.015625,-0.25 -0.1875,-0.25 -0.15625,0 -0.203125,0.078125 -0.265625,0.171875 z M 2.984375,-2.609375 4.9375,-5.90625 5.265625,-2.609375 Z m 0,0"
               id="path7538" />
          </g>
        </g>
      </g>
    </g>
    <g
       inkscape:label=""
       transform="matrix(0.59256964,0,0,0.59256964,61.514021,105.06602)"
       id="g7859"
       style="stroke-width:1.68757">
      <g
         id="g7857"
         transform="matrix(0.352778,0,0,0.352778,-0.148828,0.00158747)"
         style="stroke-width:1.68757">
        <g
           clip-path="url(#clipPath7575)"
           clip-rule="nonzero"
           id="g7855"
           style="stroke-width:2.84788">
          <g
             style="fill:#000000;fill-opacity:1;stroke-width:1.68757"
             id="g7853">
            <g
               id="g7851"
               transform="translate(0,6.8080001)"
               style="stroke-width:1.68757">
              <path
                 style="stroke:none;stroke-width:1.68757"
                 d="M 1.59375,-0.78125 C 1.5,-0.390625 1.46875,-0.3125 0.6875,-0.3125 c -0.171875,0 -0.265625,0 -0.265625,0.203125 C 0.421875,0 0.515625,0 0.6875,0 H 4.25 C 5.828125,0 7,-1.171875 7,-2.15625 7,-2.875 6.421875,-3.453125 5.453125,-3.5625 6.484375,-3.75 7.53125,-4.484375 7.53125,-5.4375 c 0,-0.734375 -0.65625,-1.375 -1.84375,-1.375 H 2.328125 c -0.1875,0 -0.28125,0 -0.28125,0.203125 0,0.109375 0.09375,0.109375 0.28125,0.109375 0.015625,0 0.203125,0 0.375,0.015625 0.171875,0.03125 0.265625,0.03125 0.265625,0.171875 0,0.03125 -0.015625,0.0625 -0.03125,0.1875 z m 1.5,-2.875 0.625,-2.46875 C 3.8125,-6.46875 3.828125,-6.5 4.25,-6.5 h 1.296875 c 0.875,0 1.078125,0.59375 1.078125,1.03125 0,0.875 -0.859375,1.8125 -2.0625,1.8125 z m -0.4375,3.34375 c -0.140625,0 -0.15625,0 -0.21875,0 -0.109375,-0.015625 -0.140625,-0.03125 -0.140625,-0.109375 0,-0.03125 0,-0.046875 0.0625,-0.21875 l 0.6875,-2.78125 h 1.875 c 0.953125,0 1.15625,0.734375 1.15625,1.15625 C 6.078125,-1.28125 5.1875,-0.3125 4,-0.3125 Z m 0,0"
                 id="path7849" />
            </g>
          </g>
        </g>
      </g>
    </g>
    <g
       inkscape:label=""
       transform="matrix(0.59256964,0,0,0.59256964,61.517287,109.23912)"
       id="g8191"
       style="stroke-width:1.68757">
      <g
         id="g8189"
         transform="matrix(0.352778,0,0,0.352778,-0.176389,0.0787576)"
         style="stroke-width:1.68757">
        <g
           clip-path="url(#clipPath2374)"
           clip-rule="nonzero"
           id="g8187"
           style="stroke-width:2.84788">
          <g
             style="fill:#000000;fill-opacity:1;stroke-width:1.68757"
             id="g8185">
            <g
               id="g8183"
               transform="translate(0,6.8080001)"
               style="stroke-width:1.68757">
              <path
                 style="stroke:none;stroke-width:1.68757"
                 d="m 7.578125,-6.921875 c 0,-0.03125 -0.015625,-0.109375 -0.109375,-0.109375 -0.03125,0 -0.046875,0.015625 -0.15625,0.125 L 6.625,-6.140625 C 6.53125,-6.28125 6.078125,-7.03125 4.96875,-7.03125 2.734375,-7.03125 0.5,-4.828125 0.5,-2.515625 0.5,-0.875 1.671875,0.21875 3.203125,0.21875 c 0.859375,0 1.625,-0.390625 2.15625,-0.859375 0.921875,-0.8125 1.09375,-1.71875 1.09375,-1.75 C 6.453125,-2.5 6.34375,-2.5 6.328125,-2.5 c -0.0625,0 -0.109375,0.03125 -0.125,0.109375 -0.09375,0.28125 -0.328125,1 -1.015625,1.578125 -0.6875,0.546875 -1.3125,0.71875 -1.828125,0.71875 -0.890625,0 -1.953125,-0.515625 -1.953125,-2.0625 0,-0.578125 0.203125,-2.1875 1.203125,-3.359375 0.609375,-0.703125 1.546875,-1.203125 2.4375,-1.203125 1.015625,0 1.609375,0.765625 1.609375,1.921875 0,0.40625 -0.03125,0.40625 -0.03125,0.515625 0,0.09375 0.109375,0.09375 0.140625,0.09375 0.125,0 0.125,-0.015625 0.1875,-0.203125 z m 0,0"
                 id="path8181" />
            </g>
          </g>
        </g>
      </g>
    </g>
    <g
       inkscape:label=""
       transform="matrix(0.59256964,0,0,0.59256964,120.22564,105.65149)"
       id="g8539"
       style="stroke-width:1.68757">
      <g
         id="g8537"
         transform="matrix(0.352778,0,0,0.352778,-0.143316,0.00158747)"
         style="stroke-width:1.68757">
        <g
           clip-path="url(#clipPath8216)"
           clip-rule="nonzero"
           id="g8535"
           style="stroke-width:2.84788">
          <g
             style="fill:#000000;fill-opacity:1;stroke-width:1.68757"
             id="g8533">
            <g
               id="g8531"
               transform="translate(0,6.8080001)"
               style="stroke-width:1.68757">
              <path
                 style="stroke:none;stroke-width:1.68757"
                 d="m 1.578125,-0.78125 c -0.09375,0.390625 -0.109375,0.46875 -0.90625,0.46875 -0.15625,0 -0.265625,0 -0.265625,0.1875 C 0.40625,0 0.484375,0 0.671875,0 h 3.3125 c 2.0625,0 4.03125,-2.109375 4.03125,-4.28125 0,-1.40625 -0.84375,-2.53125 -2.34375,-2.53125 h -3.34375 c -0.1875,0 -0.296875,0 -0.296875,0.1875 0,0.125 0.078125,0.125 0.28125,0.125 0.125,0 0.3125,0.015625 0.421875,0.015625 0.171875,0.03125 0.21875,0.046875 0.21875,0.171875 0,0.03125 0,0.0625 -0.03125,0.1875 z M 3.734375,-6.125 C 3.828125,-6.46875 3.84375,-6.5 4.28125,-6.5 h 1.0625 c 0.96875,0 1.796875,0.53125 1.796875,1.84375 0,0.484375 -0.1875,2.125 -1.046875,3.21875 -0.28125,0.375 -1.0625,1.125 -2.296875,1.125 h -1.125 c -0.140625,0 -0.15625,0 -0.21875,0 -0.09375,-0.015625 -0.125,-0.03125 -0.125,-0.109375 0,-0.03125 0,-0.046875 0.046875,-0.21875 z m 0,0"
                 id="path8529" />
            </g>
          </g>
        </g>
      </g>
    </g>
    <g
       inkscape:label=""
       transform="matrix(0.59256964,0,0,0.59256964,87.011003,131.35306)"
       id="g8899"
       style="stroke-width:1.68757">
      <g
         id="g8897"
         transform="matrix(0.352778,0,0,0.352778,-0.132292,-0.00943684)"
         style="stroke-width:1.68757">
        <g
           style="fill:#000000;fill-opacity:1;stroke-width:1.68757"
           id="g8895">
          <g
             id="g8893"
             transform="translate(0,6.8080001)"
             style="stroke-width:1.68757">
            <path
               style="stroke:none;stroke-width:1.68757"
               d="M 7.0625,-2.328125 C 7.078125,-2.375 7.109375,-2.4375 7.109375,-2.46875 c 0,0 0,-0.109375 -0.125,-0.109375 -0.09375,0 -0.109375,0.0625 -0.125,0.125 C 6.203125,-0.984375 5.84375,-0.3125 4.140625,-0.3125 H 2.6875 c -0.140625,0 -0.171875,0 -0.21875,0 -0.109375,-0.015625 -0.140625,-0.03125 -0.140625,-0.109375 0,-0.03125 0,-0.046875 0.046875,-0.21875 L 3.0625,-3.375 h 0.984375 c 0.84375,0 0.84375,0.21875 0.84375,0.46875 0,0.0625 0,0.1875 -0.0625,0.484375 C 4.8125,-2.375 4.796875,-2.34375 4.796875,-2.3125 c 0,0.046875 0.03125,0.109375 0.125,0.109375 C 5,-2.203125 5.03125,-2.25 5.078125,-2.40625 l 0.5625,-2.328125 c 0,-0.0625 -0.046875,-0.109375 -0.125,-0.109375 -0.078125,0 -0.109375,0.0625 -0.125,0.171875 -0.21875,0.765625 -0.390625,1 -1.3125,1 h -0.9375 l 0.59375,-2.40625 C 3.828125,-6.4375 3.84375,-6.46875 4.28125,-6.46875 H 5.6875 c 1.203125,0 1.515625,0.28125 1.515625,1.109375 0,0.234375 0,0.25 -0.046875,0.53125 0,0.046875 -0.015625,0.125 -0.015625,0.171875 0,0.046875 0.03125,0.125 0.125,0.125 0.109375,0 0.125,-0.0625 0.140625,-0.25 L 7.609375,-6.515625 C 7.640625,-6.78125 7.59375,-6.78125 7.34375,-6.78125 H 2.296875 c -0.1875,0 -0.296875,0 -0.296875,0.203125 0,0.109375 0.09375,0.109375 0.28125,0.109375 0.375,0 0.65625,0 0.65625,0.171875 0,0.046875 0,0.0625 -0.0625,0.25 L 1.5625,-0.78125 c -0.09375,0.390625 -0.109375,0.46875 -0.90625,0.46875 -0.171875,0 -0.28125,0 -0.28125,0.1875 C 0.375,0 0.46875,0 0.65625,0 h 5.171875 c 0.234375,0 0.25,-0.015625 0.3125,-0.171875 z m 0,0"
               id="path8891" />
          </g>
        </g>
      </g>
    </g>
    <g
       inkscape:label=""
       transform="matrix(0.59256964,0,0,0.59256964,93.860881,131.35306)"
       id="g9270"
       style="stroke-width:1.68757">
      <g
         id="g9268"
         transform="matrix(0.352778,0,0,0.352778,-0.132292,-0.00943684)"
         style="stroke-width:1.68757">
        <g
           clip-path="url(#clipPath354)"
           clip-rule="nonzero"
           id="g9266"
           style="stroke-width:2.84788">
          <g
             style="fill:#000000;fill-opacity:1;stroke-width:1.68757"
             id="g9264">
            <g
               id="g9262"
               transform="translate(0,6.8080001)"
               style="stroke-width:1.68757">
              <path
                 style="stroke:none;stroke-width:1.68757"
                 d="m 3.015625,-3.234375 h 0.96875 c 0.75,0 0.828125,0.15625 0.828125,0.4375 0,0.078125 0,0.1875 -0.0625,0.5 C 4.71875,-2.25 4.71875,-2.21875 4.71875,-2.1875 c 0,0.078125 0.0625,0.109375 0.109375,0.109375 0.109375,0 0.109375,-0.03125 0.15625,-0.203125 L 5.53125,-4.453125 C 5.5625,-4.5625 5.5625,-4.578125 5.5625,-4.609375 5.5625,-4.625 5.546875,-4.71875 5.4375,-4.71875 5.34375,-4.71875 5.328125,-4.671875 5.296875,-4.5 5.078125,-3.734375 4.859375,-3.546875 4,-3.546875 H 3.09375 l 0.640625,-2.53125 C 3.828125,-6.4375 3.84375,-6.46875 4.28125,-6.46875 h 1.3125 c 1.21875,0 1.453125,0.328125 1.453125,1.09375 0,0.234375 0,0.265625 -0.03125,0.546875 C 7,-4.703125 7,-4.6875 7,-4.65625 c 0,0.046875 0.03125,0.125 0.125,0.125 0.109375,0 0.109375,-0.0625 0.125,-0.25 L 7.453125,-6.515625 C 7.484375,-6.78125 7.4375,-6.78125 7.1875,-6.78125 H 2.296875 c -0.1875,0 -0.296875,0 -0.296875,0.203125 0,0.109375 0.09375,0.109375 0.28125,0.109375 0.375,0 0.65625,0 0.65625,0.171875 0,0.046875 0,0.0625 -0.0625,0.25 L 1.5625,-0.78125 c -0.09375,0.390625 -0.109375,0.46875 -0.90625,0.46875 -0.171875,0 -0.28125,0 -0.28125,0.1875 C 0.375,0 0.5,0 0.53125,0 0.8125,0 1.5625,-0.03125 1.84375,-0.03125 2.171875,-0.03125 3,0 3.328125,0 3.421875,0 3.53125,0 3.53125,-0.1875 3.53125,-0.265625 3.484375,-0.296875 3.484375,-0.296875 3.453125,-0.3125 3.421875,-0.3125 3.203125,-0.3125 c -0.21875,0 -0.265625,0 -0.515625,-0.015625 -0.296875,-0.03125 -0.328125,-0.078125 -0.328125,-0.203125 0,-0.015625 0,-0.078125 0.046875,-0.21875 z m 0,0"
                 id="path9260" />
            </g>
          </g>
        </g>
      </g>
    </g>
    <g
       inkscape:label=""
       transform="matrix(0.59256964,0,0,0.59256964,90.460317,115.61265)"
       id="g9660"
       style="stroke-width:1.68757">
      <g
         id="g9658"
         transform="matrix(0.352778,0,0,0.352778,-0.176389,0.0787576)"
         style="stroke-width:1.68757">
        <g
           clip-path="url(#clipPath2756)"
           clip-rule="nonzero"
           id="g9656"
           style="stroke-width:2.84788">
          <g
             style="fill:#000000;fill-opacity:1;stroke-width:1.68757"
             id="g9654">
            <g
               id="g9652"
               transform="translate(0,6.8080001)"
               style="stroke-width:1.68757">
              <path
                 style="stroke:none;stroke-width:1.68757"
                 d="m 7.578125,-6.921875 c 0,-0.03125 -0.015625,-0.109375 -0.109375,-0.109375 -0.03125,0 -0.046875,0.015625 -0.15625,0.125 L 6.625,-6.140625 C 6.53125,-6.28125 6.078125,-7.03125 4.96875,-7.03125 2.734375,-7.03125 0.5,-4.828125 0.5,-2.515625 c 0,1.59375 1.109375,2.734375 2.71875,2.734375 0.4375,0 0.890625,-0.09375 1.25,-0.234375 0.5,-0.203125 0.6875,-0.40625 0.859375,-0.609375 0.09375,0.25 0.359375,0.609375 0.453125,0.609375 0.046875,0 0.078125,-0.03125 0.078125,-0.03125 C 5.875,-0.0625 5.96875,-0.453125 6.015625,-0.65625 l 0.1875,-0.765625 C 6.25,-1.59375 6.296875,-1.765625 6.34375,-1.9375 c 0.109375,-0.4375 0.109375,-0.46875 0.6875,-0.46875 0.046875,0 0.15625,-0.015625 0.15625,-0.203125 0,-0.078125 -0.046875,-0.109375 -0.125,-0.109375 -0.234375,0 -0.828125,0.03125 -1.046875,0.03125 -0.3125,0 -1.09375,-0.03125 -1.40625,-0.03125 -0.078125,0 -0.203125,0 -0.203125,0.203125 0,0.109375 0.078125,0.109375 0.296875,0.109375 0.015625,0 0.296875,0 0.53125,0.015625 0.265625,0.03125 0.3125,0.0625 0.3125,0.1875 0,0.09375 -0.109375,0.53125 -0.21875,0.90625 -0.28125,1.09375 -1.5625,1.203125 -1.921875,1.203125 -0.953125,0 -2,-0.5625 -2,-2.09375 0,-0.3125 0.09375,-1.953125 1.140625,-3.25 0.546875,-0.671875 1.515625,-1.28125 2.5,-1.28125 1.015625,0 1.609375,0.765625 1.609375,1.921875 0,0.40625 -0.03125,0.40625 -0.03125,0.515625 0,0.09375 0.109375,0.09375 0.140625,0.09375 0.125,0 0.125,-0.015625 0.1875,-0.203125 z m 0,0"
                 id="path9650" />
            </g>
          </g>
        </g>
      </g>
    </g>
    <g
       inkscape:label=""
       transform="matrix(0.59256964,0,0,0.59256964,107.76258,107.16961)"
       id="g10066"
       style="stroke-width:1.68757">
      <g
         id="g10064"
         transform="matrix(0.352778,0,0,0.352778,-0.137804,0.00158747)"
         style="stroke-width:1.68757">
        <g
           clip-path="url(#clipPath1264)"
           clip-rule="nonzero"
           id="g10062"
           style="stroke-width:2.84788">
          <g
             style="fill:#000000;fill-opacity:1;stroke-width:1.68757"
             id="g10060">
            <g
               id="g10058"
               transform="translate(0,6.8080001)"
               style="stroke-width:1.68757">
              <path
                 style="stroke:none;stroke-width:1.68757"
                 d="M 7.609375,-6.046875 C 7.703125,-6.40625 7.71875,-6.5 8.4375,-6.5 c 0.265625,0 0.34375,0 0.34375,-0.203125 0,-0.109375 -0.109375,-0.109375 -0.140625,-0.109375 -0.28125,0 -1,0.03125 -1.28125,0.03125 -0.28125,0 -0.984375,-0.03125 -1.28125,-0.03125 -0.078125,0 -0.1875,0 -0.1875,0.203125 0,0.109375 0.09375,0.109375 0.28125,0.109375 0.015625,0 0.203125,0 0.375,0.015625 0.1875,0.03125 0.265625,0.03125 0.265625,0.171875 0,0.03125 0,0.046875 -0.03125,0.1875 L 6.1875,-3.703125 H 3.140625 l 0.59375,-2.34375 C 3.8125,-6.40625 3.84375,-6.5 4.5625,-6.5 c 0.265625,0 0.34375,0 0.34375,-0.203125 0,-0.109375 -0.109375,-0.109375 -0.140625,-0.109375 -0.28125,0 -1,0.03125 -1.28125,0.03125 -0.28125,0 -0.984375,-0.03125 -1.28125,-0.03125 -0.078125,0 -0.1875,0 -0.1875,0.203125 0,0.109375 0.09375,0.109375 0.28125,0.109375 0.015625,0 0.203125,0 0.375,0.015625 0.171875,0.03125 0.265625,0.03125 0.265625,0.171875 0,0.03125 0,0.0625 -0.03125,0.1875 L 1.5625,-0.78125 c -0.09375,0.390625 -0.109375,0.46875 -0.90625,0.46875 -0.171875,0 -0.265625,0 -0.265625,0.203125 C 0.390625,0 0.515625,0 0.53125,0 0.8125,0 1.515625,-0.03125 1.796875,-0.03125 2,-0.03125 2.21875,-0.015625 2.4375,-0.015625 2.65625,-0.015625 2.875,0 3.078125,0 3.15625,0 3.28125,0 3.28125,-0.203125 3.28125,-0.3125 3.1875,-0.3125 3,-0.3125 c -0.375,0 -0.640625,0 -0.640625,-0.171875 0,-0.0625 0.015625,-0.109375 0.015625,-0.171875 l 0.6875,-2.734375 h 3.03125 c -0.40625,1.65625 -0.640625,2.609375 -0.6875,2.75 C 5.3125,-0.3125 5.125,-0.3125 4.5,-0.3125 c -0.140625,0 -0.234375,0 -0.234375,0.203125 C 4.265625,0 4.390625,0 4.40625,0 4.6875,0 5.390625,-0.03125 5.671875,-0.03125 5.875,-0.03125 6.09375,-0.015625 6.3125,-0.015625 6.53125,-0.015625 6.75,0 6.953125,0 7.03125,0 7.15625,0 7.15625,-0.203125 7.15625,-0.3125 7.0625,-0.3125 6.875,-0.3125 c -0.359375,0 -0.640625,0 -0.640625,-0.171875 0,-0.0625 0.015625,-0.109375 0.03125,-0.171875 z m 0,0"
                 id="path10056" />
            </g>
          </g>
        </g>
      </g>
    </g>
    <g
       inkscape:label=""
       transform="matrix(0.59256964,0,0,0.59256964,108.15781,103.5774)"
       id="g10488"
       style="stroke-width:1.68757">
      <g
         id="g10486"
         transform="matrix(0.352778,0,0,0.352778,-0.121267,0.00158747)"
         style="stroke-width:1.68757">
        <g
           clip-path="url(#clipPath1398)"
           clip-rule="nonzero"
           id="g10484"
           style="stroke-width:2.84788">
          <g
             style="fill:#000000;fill-opacity:1;stroke-width:1.68757"
             id="g10482">
            <g
               id="g10480"
               transform="translate(0,6.8080001)"
               style="stroke-width:1.68757">
              <path
                 style="stroke:none;stroke-width:1.68757"
                 d="M 3.734375,-6.046875 C 3.8125,-6.40625 3.84375,-6.5 4.640625,-6.5 c 0.234375,0 0.3125,0 0.3125,-0.1875 0,-0.125 -0.109375,-0.125 -0.140625,-0.125 -0.296875,0 -1.03125,0.03125 -1.328125,0.03125 -0.296875,0 -1.015625,-0.03125 -1.328125,-0.03125 -0.0625,0 -0.1875,0 -0.1875,0.203125 C 1.96875,-6.5 2.046875,-6.5 2.25,-6.5 c 0.40625,0 0.6875,0 0.6875,0.1875 0,0.046875 0,0.078125 -0.03125,0.15625 l -1.34375,5.375 c -0.09375,0.375 -0.109375,0.46875 -0.90625,0.46875 -0.234375,0 -0.3125,0 -0.3125,0.203125 C 0.34375,0 0.453125,0 0.484375,0 0.78125,0 1.5,-0.03125 1.796875,-0.03125 2.09375,-0.03125 2.828125,0 3.125,0 c 0.078125,0 0.203125,0 0.203125,-0.1875 0,-0.125 -0.078125,-0.125 -0.296875,-0.125 -0.1875,0 -0.234375,0 -0.421875,-0.015625 -0.21875,-0.015625 -0.25,-0.0625 -0.25,-0.171875 0,-0.078125 0.015625,-0.15625 0.03125,-0.234375 z m 0,0"
                 id="path10478" />
            </g>
          </g>
        </g>
      </g>
    </g>
    <g
       inkscape:label=""
       transform="matrix(1.4022164,0,0,1.4022164,90.41273,131.06021)"
       id="g10926"
       style="stroke-width:0.713156">
      <g
         id="g10924"
         transform="matrix(0.352778,0,0,0.352778,-0.192925,0.00136694)"
         style="stroke-width:0.713156">
        <g
           clip-path="url(#clipPath6256)"
           clip-rule="nonzero"
           id="g10922"
           style="stroke-width:0.32954">
          <g
             style="fill:#000000;fill-opacity:1;stroke-width:0.713156"
             id="g10920">
            <g
               id="g10918"
               transform="translate(0,6.9180002)"
               style="stroke-width:0.713156">
              <path
                 style="stroke:none;stroke-width:0.713156"
                 d="m 2.1605617,-6.900772 c 0,0 0,-0.042535 -0.048612,-0.042535 -0.091147,0 -0.3706652,0.030382 -0.4739653,0.042535 -0.030382,0 -0.072918,0.00608 -0.072918,0.072918 0,0.048612 0.036459,0.048612 0.091147,0.048612 0.1883709,0 0.1944474,0.024306 0.1944474,0.066841 l -0.012153,0.078994 -0.5590361,2.2300677 c -0.018229,0.054688 -0.018229,0.060765 -0.018229,0.085071 0,0.091147 0.078994,0.1093767 0.1154531,0.1093767 0.060765,0 0.1215296,-0.048612 0.139759,-0.1033002 l 0.072918,-0.291671 0.085071,-0.3463593 c 0.024306,-0.091147 0.048612,-0.1762179 0.066841,-0.2612886 0.00608,-0.024306 0.042535,-0.1519119 0.042535,-0.1762179 0.012153,-0.036459 0.1336825,-0.2491356 0.2673651,-0.3585122 0.085071,-0.060765 0.2005238,-0.1336825 0.3706652,-0.1336825 0.1640649,0 0.2066003,0.1336825 0.2066003,0.2734415 0,0.2066003 -0.1458355,0.6319538 -0.2369827,0.8689365 -0.030382,0.085071 -0.054688,0.1336825 -0.054688,0.2126767 0,0.1822944 0.139759,0.315977 0.3220534,0.315977 0.3645887,0 0.5043477,-0.5651126 0.5043477,-0.595495 0,-0.042535 -0.030382,-0.042535 -0.042535,-0.042535 -0.042535,0 -0.042535,0.012153 -0.060765,0.072918 -0.054688,0.2066003 -0.1822944,0.4800418 -0.3949712,0.4800418 -0.066841,0 -0.091147,-0.036459 -0.091147,-0.127606 0,-0.097224 0.030382,-0.1883709 0.066841,-0.2734416 0.060765,-0.1701414 0.2369827,-0.6319538 0.2369827,-0.8567835 0,-0.2491356 -0.151912,-0.4132006 -0.443583,-0.4132006 -0.2430591,0 -0.43143,0.1215296 -0.5772655,0.2977475 z m 0,0"
                 id="path10916" />
            </g>
          </g>
        </g>
      </g>
    </g>
  </g>
</svg>
