<?xml version="1.0" encoding="UTF-8" standalone="no"?>
<!-- Created with Inkscape (http://www.inkscape.org/) -->

<svg
   width="297mm"
   height="210mm"
   viewBox="0 0 297 210"
   version="1.1"
   id="svg5"
   sodipodi:docname="RelatedRatesTri2.svg"
   inkscape:version="1.2.1 (1:1.2.1+202210291244+9c6d41e410)"
   xmlns:inkscape="http://www.inkscape.org/namespaces/inkscape"
   xmlns:sodipodi="http://sodipodi.sourceforge.net/DTD/sodipodi-0.dtd"
   xmlns="http://www.w3.org/2000/svg"
   xmlns:svg="http://www.w3.org/2000/svg">
  <sodipodi:namedview
     id="namedview7"
     pagecolor="#ffffff"
     bordercolor="#cccccc"
     borderopacity="1"
     inkscape:showpageshadow="0"
     inkscape:pageopacity="1"
     inkscape:pagecheckerboard="0"
     inkscape:deskcolor="#d1d1d1"
     inkscape:document-units="mm"
     showgrid="false"
     inkscape:zoom="45.254835"
     inkscape:cx="378.31317"
     inkscape:cy="251.95098"
     inkscape:window-width="1920"
     inkscape:window-height="1030"
     inkscape:window-x="0"
     inkscape:window-y="50"
     inkscape:window-maximized="1"
     inkscape:current-layer="layer1" />
  <defs
     id="defs2">
    <inkscape:path-effect
       effect="bspline"
       id="path-effect2391"
       is_visible="true"
       lpeversion="1"
       weight="33.333333"
       steps="2"
       helper_size="0"
       apply_no_weight="true"
       apply_with_weight="true"
       only_selected="false" />
    <clipPath
       id="clipPath6259">
      <path
         d="M 0,0 H 4.953125 V 6.917969 H 0 Z m 0,0"
         id="path9882" />
    </clipPath>
    <clipPath
       id="clipPath4337">
      <path
         d="M 0,0 H 15 V 6.917969 H 0 Z m 0,0"
         id="path9457" />
    </clipPath>
    <clipPath
       id="clipPath9143">
      <path
         d="m 17,0 h 7 v 6.917969 h -7 z m 0,0"
         id="path9368" />
    </clipPath>
    <clipPath
       id="clipPath7712">
      <path
         d="M 0,0 H 5.738281 V 6.917969 H 0 Z m 0,0"
         id="path2275" />
    </clipPath>
    <clipPath
       id="clipPath9831">
      <path
         d="M 0,0 H 4.953125 V 6.917969 H 0 Z m 0,0"
         id="path613" />
    </clipPath>
    <clipPath
       id="clipPath6446">
      <path
         d="M 0,2 H 24 V 8.855469 H 0 Z m 0,0"
         id="path7772" />
    </clipPath>
    <clipPath
       id="clipPath6404">
      <path
         d="M 0,0 H 14 V 6.917969 H 0 Z m 0,0"
         id="path8826" />
    </clipPath>
    <clipPath
       id="clipPath9099">
      <path
         d="M 18,0 H 30 V 6.917969 H 18 Z m 0,0"
         id="path5353" />
    </clipPath>
    <clipPath
       id="clipPath9226">
      <path
         d="M 32,0 H 49 V 6.917969 H 32 Z m 0,0"
         id="path696" />
    </clipPath>
    <clipPath
       id="clipPath5905">
      <path
         d="m 49,2 h 5 v 4.917969 h -5 z m 0,0"
         id="path6377" />
    </clipPath>
    <clipPath
       id="clipPath7871">
      <path
         d="M 54,2 H 64.507812 V 6.917969 H 54 Z m 0,0"
         id="path1085" />
    </clipPath>
  </defs>
  <g
     inkscape:label="Layer 1"
     inkscape:groupmode="layer"
     id="layer1">
    <path
       style="fill:none;stroke:#000000;stroke-width:0.13;stroke-linecap:butt;stroke-linejoin:miter;stroke-opacity:1;stroke-dasharray:none"
       d="M 96.678134,67.789323 H 120.27717 V 50.612102 Z"
       id="path273" />
    <path
       style="fill:none;stroke:#000000;stroke-width:0.13;stroke-linecap:butt;stroke-linejoin:miter;stroke-opacity:1;stroke-dasharray:none"
       d="m 98.601649,66.438682 c 0.340532,0.37499 0.453107,0.908917 0.384863,1.402643"
       id="path2572" />
    <g
       inkscape:label=""
       transform="matrix(0.40750699,0,0,0.40750699,99.840225,66.252574)"
       id="g2956"
       style="stroke-width:2.45395">
      <g
         id="surface1"
         transform="matrix(0.352778,0,0,0.352778,-0.148828,0.039952)"
         style="stroke-width:2.45395">
        <g
           clip-path="url(#clipPath6259)"
           clip-rule="nonzero"
           id="g19"
           style="stroke-width:3.97252">
          <g
             style="fill:#000000;fill-opacity:1;stroke-width:2.45395"
             id="g17">
            <g
               id="use15"
               transform="translate(0,6.9180002)"
               style="stroke-width:2.45395">
              <path
                 style="stroke:none;stroke-width:2.45395"
                 d="m 4.53125,-4.984375 c 0,-0.65625 -0.171875,-2.046875 -1.1875,-2.046875 -1.390625,0 -2.921875,2.8125 -2.921875,5.09375 0,0.9375 0.28125,2.046875 1.1875,2.046875 1.40625,0 2.921875,-2.859375 2.921875,-5.09375 z M 1.46875,-3.625 C 1.640625,-4.25 1.84375,-5.046875 2.25,-5.765625 2.515625,-6.25 2.875,-6.8125 3.328125,-6.8125 c 0.484375,0 0.546875,0.640625 0.546875,1.203125 0,0.5 -0.078125,1 -0.3125,1.984375 z m 2,0.328125 C 3.359375,-2.84375 3.15625,-2 2.765625,-1.28125 c -0.34375,0.6875 -0.71875,1.171875 -1.15625,1.171875 -0.328125,0 -0.53125,-0.296875 -0.53125,-1.21875 0,-0.421875 0.0625,-1 0.3125,-1.96875 z m 0,0"
                 id="path26" />
            </g>
          </g>
        </g>
      </g>
    </g>
    <g
       inkscape:label=""
       transform="matrix(0.41864057,0,0,0.41864057,106.71094,68.854843)"
       id="g358"
       style="stroke-width:2.38869">
      <g
         id="g356"
         transform="matrix(0.352778,0,0,0.352778,-0.176389,0.039952)"
         style="stroke-width:2.38869">
        <g
           clip-path="url(#clipPath4337)"
           clip-rule="nonzero"
           id="g35"
           style="stroke-width:4.07632">
          <g
             style="fill:#000000;fill-opacity:1;stroke-width:2.38869"
             id="g33">
            <g
               id="use27"
               transform="translate(0,6.9180002)"
               style="stroke-width:2.38869">
              <path
                 style="stroke:none;stroke-width:2.38869"
                 d="m 4.46875,-2 c 0,-1.1875 -0.8125,-2.1875 -1.890625,-2.1875 -0.46875,0 -0.90625,0.15625 -1.265625,0.515625 V -5.625 c 0.203125,0.0625 0.53125,0.125 0.84375,0.125 1.234375,0 1.9375,-0.90625 1.9375,-1.03125 0,-0.0625 -0.03125,-0.109375 -0.109375,-0.109375 0,0 -0.03125,0 -0.078125,0.03125 C 3.703125,-6.515625 3.21875,-6.3125 2.546875,-6.3125 2.15625,-6.3125 1.6875,-6.390625 1.21875,-6.59375 1.140625,-6.625 1.125,-6.625 1.109375,-6.625 1,-6.625 1,-6.546875 1,-6.390625 V -3.4375 c 0,0.171875 0,0.25 0.140625,0.25 0.078125,0 0.09375,-0.015625 0.140625,-0.078125 C 1.390625,-3.421875 1.75,-3.96875 2.5625,-3.96875 c 0.515625,0 0.765625,0.453125 0.84375,0.640625 0.15625,0.375 0.1875,0.75 0.1875,1.25 0,0.359375 0,0.953125 -0.25,1.375 C 3.109375,-0.3125 2.734375,-0.0625 2.28125,-0.0625 c -0.71875,0 -1.296875,-0.53125 -1.46875,-1.109375 0.03125,0 0.0625,0.015625 0.171875,0.015625 0.328125,0 0.5,-0.25 0.5,-0.484375 0,-0.25 -0.171875,-0.5 -0.5,-0.5 C 0.84375,-2.140625 0.5,-2.0625 0.5,-1.609375 0.5,-0.75 1.1875,0.21875 2.296875,0.21875 3.453125,0.21875 4.46875,-0.734375 4.46875,-2 Z m 0,0"
                 id="path50" />
            </g>
            <g
               id="use29"
               transform="translate(4.9812999,6.9180002)"
               style="stroke-width:2.38869">
              <path
                 style="stroke:none;stroke-width:2.38869"
                 d="m 4.578125,-3.1875 c 0,-0.796875 -0.046875,-1.59375 -0.390625,-2.328125 -0.453125,-0.96875 -1.28125,-1.125 -1.6875,-1.125 -0.609375,0 -1.328125,0.265625 -1.75,1.1875 -0.3125,0.6875 -0.359375,1.46875 -0.359375,2.265625 0,0.75 0.03125,1.640625 0.453125,2.40625 0.421875,0.796875 1.15625,1 1.640625,1 0.53125,0 1.296875,-0.203125 1.734375,-1.15625 0.3125,-0.6875 0.359375,-1.46875 0.359375,-2.25 z M 2.484375,0 C 2.09375,0 1.5,-0.25 1.328125,-1.203125 1.21875,-1.796875 1.21875,-2.71875 1.21875,-3.3125 c 0,-0.640625 0,-1.296875 0.078125,-1.828125 0.1875,-1.1875 0.9375,-1.28125 1.1875,-1.28125 0.328125,0 0.984375,0.1875 1.171875,1.171875 0.109375,0.5625 0.109375,1.3125 0.109375,1.9375 0,0.75 0,1.421875 -0.109375,2.0625 C 3.5,-0.296875 2.9375,0 2.484375,0 Z m 0,0"
                 id="path54" />
            </g>
            <g
               id="use31"
               transform="translate(9.9625998,6.9180002)"
               style="stroke-width:2.38869">
              <path
                 style="stroke:none;stroke-width:2.38869"
                 d="m 4.578125,-3.1875 c 0,-0.796875 -0.046875,-1.59375 -0.390625,-2.328125 -0.453125,-0.96875 -1.28125,-1.125 -1.6875,-1.125 -0.609375,0 -1.328125,0.265625 -1.75,1.1875 -0.3125,0.6875 -0.359375,1.46875 -0.359375,2.265625 0,0.75 0.03125,1.640625 0.453125,2.40625 0.421875,0.796875 1.15625,1 1.640625,1 0.53125,0 1.296875,-0.203125 1.734375,-1.15625 0.3125,-0.6875 0.359375,-1.46875 0.359375,-2.25 z M 2.484375,0 C 2.09375,0 1.5,-0.25 1.328125,-1.203125 1.21875,-1.796875 1.21875,-2.71875 1.21875,-3.3125 c 0,-0.640625 0,-1.296875 0.078125,-1.828125 0.1875,-1.1875 0.9375,-1.28125 1.1875,-1.28125 0.328125,0 0.984375,0.1875 1.171875,1.171875 0.109375,0.5625 0.109375,1.3125 0.109375,1.9375 0,0.75 0,1.421875 -0.109375,2.0625 C 3.5,-0.296875 2.9375,0 2.484375,0 Z m 0,0"
                 id="path58" />
            </g>
          </g>
        </g>
        <g
           clip-path="url(#clipPath9143)"
           clip-rule="nonzero"
           id="g43"
           style="stroke-width:4.07632">
          <g
             style="fill:#000000;fill-opacity:1;stroke-width:2.38869"
             id="g41">
            <g
               id="use37"
               transform="translate(17.155598,6.9180002)"
               style="stroke-width:2.38869">
              <path
                 style="stroke:none;stroke-width:2.38869"
                 d="m 1.75,-4.296875 v -1.15625 c 0,-0.875 0.46875,-1.359375 0.90625,-1.359375 0.03125,0 0.1875,0 0.328125,0.078125 C 2.875,-6.703125 2.6875,-6.5625 2.6875,-6.3125 c 0,0.21875 0.15625,0.421875 0.4375,0.421875 0.28125,0 0.4375,-0.203125 0.4375,-0.4375 0,-0.375 -0.375,-0.703125 -0.90625,-0.703125 -0.6875,0 -1.546875,0.53125 -1.546875,1.59375 v 1.140625 h -0.78125 v 0.3125 h 0.78125 V -0.75 C 1.109375,-0.3125 1,-0.3125 0.34375,-0.3125 V 0 c 0.390625,-0.015625 0.859375,-0.03125 1.125,-0.03125 0.40625,0 0.875,0 1.265625,0.03125 V -0.3125 H 2.53125 c -0.734375,0 -0.75,-0.109375 -0.75,-0.46875 v -3.203125 h 1.125 v -0.3125 z m 0,0"
                 id="path62" />
            </g>
            <g
               id="use39"
               transform="translate(20.200169,6.9180002)"
               style="stroke-width:2.38869">
              <path
                 style="stroke:none;stroke-width:2.38869"
                 d="m 1.71875,-3.984375 h 1.4375 v -0.3125 H 1.71875 V -6.125 h -0.25 c 0,0.8125 -0.296875,1.875 -1.28125,1.921875 v 0.21875 h 0.84375 v 2.75 c 0,1.21875 0.9375,1.34375 1.296875,1.34375 0.703125,0 0.984375,-0.703125 0.984375,-1.34375 v -0.5625 h -0.25 V -1.25 c 0,0.734375 -0.296875,1.109375 -0.671875,1.109375 -0.671875,0 -0.671875,-0.90625 -0.671875,-1.078125 z m 0,0"
                 id="path66" />
            </g>
          </g>
        </g>
      </g>
    </g>
    <g
       inkscape:label=""
       transform="matrix(0.41864057,0,0,0.41864057,121.24898,58.657939)"
       id="g462"
       style="stroke-width:2.38869">
      <g
         id="g460"
         transform="matrix(0.352778,0,0,0.352778,-0.192925,0.00136694)"
         style="stroke-width:2.38869">
        <g
           clip-path="url(#clipPath7712)"
           clip-rule="nonzero"
           id="g458"
           style="stroke-width:4.07632">
          <g
             style="fill:#000000;fill-opacity:1;stroke-width:2.38869"
             id="g456">
            <g
               id="g454"
               transform="translate(0,6.9180002)"
               style="stroke-width:2.38869">
              <path
                 style="stroke:none;stroke-width:2.38869"
                 d="m 2.859375,-6.8125 c 0,0 0,-0.109375 -0.125,-0.109375 -0.234375,0 -0.953125,0.078125 -1.21875,0.109375 -0.078125,0 -0.1875,0.015625 -0.1875,0.1875 0,0.125 0.09375,0.125 0.234375,0.125 0.484375,0 0.5,0.0625 0.5,0.171875 L 2.03125,-6.125 0.59375,-0.390625 c -0.046875,0.140625 -0.046875,0.15625 -0.046875,0.21875 0,0.234375 0.203125,0.28125 0.296875,0.28125 0.15625,0 0.3125,-0.125 0.359375,-0.265625 l 0.1875,-0.75 0.21875,-0.890625 C 1.671875,-2.03125 1.734375,-2.25 1.78125,-2.46875 1.796875,-2.53125 1.890625,-2.859375 1.890625,-2.921875 1.921875,-3.015625 2.234375,-3.5625 2.578125,-3.84375 2.796875,-4 3.09375,-4.1875 3.53125,-4.1875 c 0.421875,0 0.53125,0.34375 0.53125,0.703125 0,0.53125 -0.375,1.625 -0.609375,2.234375 C 3.375,-1.03125 3.3125,-0.90625 3.3125,-0.703125 c 0,0.46875 0.359375,0.8125 0.828125,0.8125 0.9375,0 1.296875,-1.453125 1.296875,-1.53125 0,-0.109375 -0.078125,-0.109375 -0.109375,-0.109375 -0.109375,0 -0.109375,0.03125 -0.15625,0.1875 -0.140625,0.53125 -0.46875,1.234375 -1.015625,1.234375 -0.171875,0 -0.234375,-0.09375 -0.234375,-0.328125 0,-0.25 0.078125,-0.484375 0.171875,-0.703125 0.15625,-0.4375 0.609375,-1.625 0.609375,-2.203125 0,-0.640625 -0.390625,-1.0625 -1.140625,-1.0625 -0.625,0 -1.109375,0.3125 -1.484375,0.765625 z m 0,0"
                 id="path452" />
            </g>
          </g>
        </g>
      </g>
    </g>
    <g
       inkscape:label=""
       transform="matrix(0.393151,0,0,0.393151,92.363495,68.760527)"
       id="g392"
       style="stroke-width:2.54355">
      <g
         id="g390"
         transform="matrix(0.352778,0,0,0.352778,-0.0992187,0.0395993)"
         style="stroke-width:2.54355">
        <g
           clip-path="url(#clipPath6446)"
           clip-rule="nonzero"
           id="g45"
           style="stroke-width:6.46966">
          <g
             style="fill:#000000;fill-opacity:1;stroke-width:2.54355"
             id="g376">
            <g
               id="use33"
               transform="translate(0,6.9190001)"
               style="stroke-width:2.54355">
              <path
                 style="stroke:none;stroke-width:2.54355"
                 d="M 1.671875,-3.3125 V -4.40625 L 0.28125,-4.296875 v 0.3125 c 0.703125,0 0.78125,0.0625 0.78125,0.5625 V -0.75 c 0,0.4375 -0.109375,0.4375 -0.78125,0.4375 V 0 c 0.390625,-0.015625 0.859375,-0.03125 1.140625,-0.03125 0.390625,0 0.859375,0 1.265625,0.03125 V -0.3125 H 2.46875 c -0.734375,0 -0.75,-0.109375 -0.75,-0.46875 V -2.3125 c 0,-0.984375 0.421875,-1.875 1.171875,-1.875 0.0625,0 0.09375,0 0.109375,0.015625 -0.03125,0 -0.234375,0.125 -0.234375,0.390625 0,0.265625 0.21875,0.421875 0.4375,0.421875 0.171875,0 0.421875,-0.125 0.421875,-0.4375 0,-0.3125 -0.3125,-0.609375 -0.734375,-0.609375 -0.734375,0 -1.09375,0.671875 -1.21875,1.09375 z m 0,0"
                 id="path64" />
            </g>
            <g
               id="use35"
               transform="translate(3.9023499,6.9190001)"
               style="stroke-width:2.54355">
              <path
                 style="stroke:none;stroke-width:2.54355"
                 d="m 3.3125,-0.75 c 0.046875,0.390625 0.3125,0.8125 0.78125,0.8125 0.21875,0 0.828125,-0.140625 0.828125,-0.953125 v -0.5625 h -0.25 v 0.5625 c 0,0.578125 -0.25,0.640625 -0.359375,0.640625 -0.328125,0 -0.375,-0.453125 -0.375,-0.5 v -1.984375 c 0,-0.421875 0,-0.8125 -0.359375,-1.1875 C 3.1875,-4.3125 2.6875,-4.46875 2.21875,-4.46875 c -0.828125,0 -1.515625,0.46875 -1.515625,1.125 0,0.296875 0.203125,0.46875 0.46875,0.46875 0.28125,0 0.453125,-0.203125 0.453125,-0.453125 0,-0.125 -0.046875,-0.453125 -0.515625,-0.453125 C 1.390625,-4.140625 1.875,-4.25 2.1875,-4.25 c 0.5,0 1.0625,0.390625 1.0625,1.28125 v 0.359375 c -0.515625,0.03125 -1.203125,0.0625 -1.828125,0.359375 -0.75,0.34375 -1,0.859375 -1,1.296875 0,0.8125 0.96875,1.0625 1.59375,1.0625 0.65625,0 1.109375,-0.40625 1.296875,-0.859375 z M 3.25,-2.390625 v 1 c 0,0.9375 -0.71875,1.28125 -1.171875,1.28125 -0.484375,0 -0.890625,-0.34375 -0.890625,-0.84375 0,-0.546875 0.421875,-1.375 2.0625,-1.4375 z m 0,0"
                 id="path68" />
            </g>
            <g
               id="g369"
               transform="translate(8.8836498,6.9190001)"
               style="stroke-width:2.54355">
              <path
                 style="stroke:none;stroke-width:2.54355"
                 d="M 1.09375,-3.421875 V -0.75 c 0,0.4375 -0.109375,0.4375 -0.78125,0.4375 V 0 c 0.359375,-0.015625 0.859375,-0.03125 1.140625,-0.03125 0.25,0 0.765625,0.015625 1.109375,0.03125 v -0.3125 c -0.671875,0 -0.78125,0 -0.78125,-0.4375 V -2.59375 C 1.78125,-3.625 2.5,-4.1875 3.125,-4.1875 c 0.640625,0 0.75,0.53125 0.75,1.109375 V -0.75 c 0,0.4375 -0.109375,0.4375 -0.78125,0.4375 V 0 c 0.34375,-0.015625 0.859375,-0.03125 1.125,-0.03125 0.25,0 0.78125,0.015625 1.109375,0.03125 v -0.3125 c -0.515625,0 -0.765625,0 -0.765625,-0.296875 v -1.90625 c 0,-0.859375 0,-1.15625 -0.3125,-1.515625 -0.140625,-0.171875 -0.46875,-0.375 -1.046875,-0.375 C 2.46875,-4.40625 2,-3.984375 1.71875,-3.359375 V -4.40625 L 0.3125,-4.296875 v 0.3125 c 0.703125,0 0.78125,0.0625 0.78125,0.5625 z m 0,0"
                 id="path72" />
            </g>
            <g
               id="g372"
               transform="translate(14.418871,6.9190001)"
               style="stroke-width:2.54355">
              <path
                 style="stroke:none;stroke-width:2.54355"
                 d="m 2.21875,-1.71875 c -0.875,0 -0.875,-1 -0.875,-1.21875 0,-0.265625 0.015625,-0.59375 0.15625,-0.84375 0.078125,-0.109375 0.3125,-0.390625 0.71875,-0.390625 0.859375,0 0.859375,0.984375 0.859375,1.21875 0,0.265625 0,0.59375 -0.15625,0.84375 C 2.84375,-2 2.609375,-1.71875 2.21875,-1.71875 Z M 1.0625,-1.328125 c 0,-0.03125 0,-0.265625 0.15625,-0.46875 0.390625,0.28125 0.8125,0.3125 1,0.3125 0.921875,0 1.609375,-0.6875 1.609375,-1.453125 0,-0.375 -0.15625,-0.734375 -0.40625,-0.96875 C 3.78125,-4.25 4.140625,-4.296875 4.3125,-4.296875 c 0.03125,0 0.078125,0 0.109375,0.015625 C 4.3125,-4.25 4.25,-4.140625 4.25,-4.015625 c 0,0.171875 0.140625,0.28125 0.296875,0.28125 0.09375,0 0.28125,-0.0625 0.28125,-0.296875 0,-0.171875 -0.109375,-0.484375 -0.5,-0.484375 -0.203125,0 -0.640625,0.0625 -1.0625,0.46875 C 2.84375,-4.375 2.4375,-4.40625 2.21875,-4.40625 c -0.9375,0 -1.625,0.6875 -1.625,1.453125 0,0.4375 0.21875,0.8125 0.46875,1.03125 -0.125,0.140625 -0.3125,0.46875 -0.3125,0.828125 0,0.3125 0.140625,0.6875 0.453125,0.890625 -0.609375,0.15625 -0.921875,0.59375 -0.921875,0.984375 0,0.71875 0.984375,1.265625 2.203125,1.265625 1.171875,0 2.203125,-0.5 2.203125,-1.28125 0,-0.34375 -0.125,-0.859375 -0.640625,-1.140625 -0.53125,-0.265625 -1.109375,-0.265625 -1.71875,-0.265625 -0.25,0 -0.671875,0 -0.75,-0.015625 C 1.265625,-0.703125 1.0625,-1 1.0625,-1.328125 Z M 2.5,1.828125 c -1.015625,0 -1.703125,-0.515625 -1.703125,-1.046875 0,-0.453125 0.375,-0.828125 0.8125,-0.84375 h 0.59375 c 0.859375,0 1.96875,0 1.96875,0.84375 0,0.546875 -0.703125,1.046875 -1.671875,1.046875 z m 0,0"
                 id="path76" />
            </g>
            <g
               id="use41"
               transform="translate(19.400171,6.9190001)"
               style="stroke-width:2.54355">
              <path
                 style="stroke:none;stroke-width:2.54355"
                 d="M 1.109375,-2.515625 C 1.171875,-4 2.015625,-4.25 2.359375,-4.25 c 1.015625,0 1.125,1.34375 1.125,1.734375 z m 0,0.21875 h 2.78125 c 0.21875,0 0.25,0 0.25,-0.21875 0,-0.984375 -0.546875,-1.953125 -1.78125,-1.953125 -1.15625,0 -2.078125,1.03125 -2.078125,2.28125 0,1.328125 1.046875,2.296875 2.1875,2.296875 C 3.6875,0.109375 4.140625,-1 4.140625,-1.1875 4.140625,-1.28125 4.0625,-1.3125 4,-1.3125 c -0.078125,0 -0.109375,0.0625 -0.125,0.140625 -0.34375,1.03125 -1.25,1.03125 -1.34375,1.03125 -0.5,0 -0.890625,-0.296875 -1.125,-0.671875 -0.296875,-0.46875 -0.296875,-1.125 -0.296875,-1.484375 z m 0,0"
                 id="path80" />
            </g>
          </g>
        </g>
        <g
           style="fill:#000000;fill-opacity:1;stroke-width:2.54355"
           id="g57">
          <g
             id="use47"
             transform="translate(27.145096,6.9190001)"
             style="stroke-width:2.54355">
            <path
               style="stroke:none;stroke-width:2.54355"
               d="m 3.296875,-3.984375 c 0.453125,0 0.515625,0.125 0.515625,0.53125 V -0.75 c 0,0.4375 -0.109375,0.4375 -0.765625,0.4375 V 0 c 0.328125,-0.015625 0.84375,-0.03125 1.09375,-0.03125 0.25,0 0.75,0.015625 1.109375,0.03125 v -0.3125 c -0.671875,0 -0.78125,0 -0.78125,-0.4375 v -3.671875 l -1.25,0.09375 C 3.0625,-4.3125 3.046875,-4.3125 3.046875,-4.3125 3.015625,-4.296875 3,-4.296875 2.859375,-4.296875 H 1.6875 v -1.125 c 0,-0.984375 0.859375,-1.390625 1.46875,-1.390625 0.296875,0 0.65625,0.109375 0.859375,0.328125 -0.40625,0.03125 -0.46875,0.296875 -0.46875,0.46875 C 3.546875,-5.6875 3.8125,-5.5625 4,-5.5625 c 0.234375,0 0.453125,-0.15625 0.453125,-0.453125 0,-0.59375 -0.546875,-1.015625 -1.28125,-1.015625 C 2.25,-7.03125 1.0625,-6.515625 1.0625,-5.4375 v 1.140625 H 0.265625 v 0.3125 H 1.0625 V -0.75 c 0,0.4375 -0.109375,0.4375 -0.78125,0.4375 V 0 C 0.609375,-0.015625 1.140625,-0.03125 1.390625,-0.03125 1.640625,-0.03125 2.125,-0.015625 2.5,0 v -0.3125 c -0.671875,0 -0.78125,0 -0.78125,-0.4375 v -3.234375 z m 0,0"
               id="path84" />
          </g>
          <g
             id="use49"
             transform="translate(32.680317,6.9190001)"
             style="stroke-width:2.54355">
            <path
               style="stroke:none;stroke-width:2.54355"
               d="M 1.09375,-3.421875 V -0.75 c 0,0.4375 -0.109375,0.4375 -0.78125,0.4375 V 0 c 0.359375,-0.015625 0.859375,-0.03125 1.140625,-0.03125 0.25,0 0.765625,0.015625 1.109375,0.03125 v -0.3125 c -0.671875,0 -0.78125,0 -0.78125,-0.4375 V -2.59375 C 1.78125,-3.625 2.5,-4.1875 3.125,-4.1875 c 0.640625,0 0.75,0.53125 0.75,1.109375 V -0.75 c 0,0.4375 -0.109375,0.4375 -0.78125,0.4375 V 0 c 0.34375,-0.015625 0.859375,-0.03125 1.125,-0.03125 0.25,0 0.78125,0.015625 1.109375,0.03125 v -0.3125 c -0.515625,0 -0.765625,0 -0.765625,-0.296875 v -1.90625 c 0,-0.859375 0,-1.15625 -0.3125,-1.515625 -0.140625,-0.171875 -0.46875,-0.375 -1.046875,-0.375 C 2.46875,-4.40625 2,-3.984375 1.71875,-3.359375 V -4.40625 L 0.3125,-4.296875 v 0.3125 c 0.703125,0 0.78125,0.0625 0.78125,0.5625 z m 0,0"
               id="path88" />
          </g>
          <g
             id="use51"
             transform="translate(38.215538,6.9190001)"
             style="stroke-width:2.54355">
            <path
               style="stroke:none;stroke-width:2.54355"
               d="m 3.78125,-0.546875 v 0.65625 L 5.25,0 v -0.3125 c -0.6875,0 -0.78125,-0.0625 -0.78125,-0.5625 V -6.921875 L 3.046875,-6.8125 V -6.5 c 0.6875,0 0.765625,0.0625 0.765625,0.5625 v 2.15625 c -0.28125,-0.359375 -0.71875,-0.625 -1.25,-0.625 -1.171875,0 -2.21875,0.984375 -2.21875,2.265625 0,1.265625 0.96875,2.25 2.109375,2.25 0.640625,0 1.078125,-0.34375 1.328125,-0.65625 z m 0,-2.671875 v 2.046875 c 0,0.171875 0,0.1875 -0.109375,0.359375 C 3.375,-0.328125 2.9375,-0.109375 2.5,-0.109375 2.046875,-0.109375 1.6875,-0.375 1.453125,-0.75 1.203125,-1.15625 1.171875,-1.71875 1.171875,-2.140625 1.171875,-2.5 1.1875,-3.09375 1.46875,-3.546875 1.6875,-3.859375 2.0625,-4.1875 2.609375,-4.1875 c 0.34375,0 0.765625,0.15625 1.0625,0.59375 0.109375,0.171875 0.109375,0.1875 0.109375,0.375 z m 0,0"
               id="path92" />
          </g>
          <g
             id="use53"
             transform="translate(43.750759,6.9190001)"
             style="stroke-width:2.54355">
            <path
               style="stroke:none;stroke-width:2.54355"
               d="M 1.109375,-2.515625 C 1.171875,-4 2.015625,-4.25 2.359375,-4.25 c 1.015625,0 1.125,1.34375 1.125,1.734375 z m 0,0.21875 h 2.78125 c 0.21875,0 0.25,0 0.25,-0.21875 0,-0.984375 -0.546875,-1.953125 -1.78125,-1.953125 -1.15625,0 -2.078125,1.03125 -2.078125,2.28125 0,1.328125 1.046875,2.296875 2.1875,2.296875 C 3.6875,0.109375 4.140625,-1 4.140625,-1.1875 4.140625,-1.28125 4.0625,-1.3125 4,-1.3125 c -0.078125,0 -0.109375,0.0625 -0.125,0.140625 -0.34375,1.03125 -1.25,1.03125 -1.34375,1.03125 -0.5,0 -0.890625,-0.296875 -1.125,-0.671875 -0.296875,-0.46875 -0.296875,-1.125 -0.296875,-1.484375 z m 0,0"
               id="path96" />
          </g>
          <g
             id="use55"
             transform="translate(48.178139,6.9190001)"
             style="stroke-width:2.54355">
            <path
               style="stroke:none;stroke-width:2.54355"
               d="M 1.671875,-3.3125 V -4.40625 L 0.28125,-4.296875 v 0.3125 c 0.703125,0 0.78125,0.0625 0.78125,0.5625 V -0.75 c 0,0.4375 -0.109375,0.4375 -0.78125,0.4375 V 0 c 0.390625,-0.015625 0.859375,-0.03125 1.140625,-0.03125 0.390625,0 0.859375,0 1.265625,0.03125 V -0.3125 H 2.46875 c -0.734375,0 -0.75,-0.109375 -0.75,-0.46875 V -2.3125 c 0,-0.984375 0.421875,-1.875 1.171875,-1.875 0.0625,0 0.09375,0 0.109375,0.015625 -0.03125,0 -0.234375,0.125 -0.234375,0.390625 0,0.265625 0.21875,0.421875 0.4375,0.421875 0.171875,0 0.421875,-0.125 0.421875,-0.4375 0,-0.3125 -0.3125,-0.609375 -0.734375,-0.609375 -0.734375,0 -1.09375,0.671875 -1.21875,1.09375 z m 0,0"
               id="path100" />
          </g>
        </g>
      </g>
    </g>
    <g
       inkscape:label=""
       transform="matrix(0.393151,0,0,0.393151,116.1761,48.992109)"
       id="g617"
       style="stroke-width:2.54355">
      <g
         id="g615"
         transform="matrix(0.352778,0,0,0.352778,-0.110243,0.00136694)"
         style="stroke-width:2.54355">
        <g
           clip-path="url(#clipPath6404)"
           clip-rule="nonzero"
           id="g59"
           style="stroke-width:6.46966">
          <g
             style="fill:#000000;fill-opacity:1;stroke-width:2.54355"
             id="g584">
            <g
               id="g576"
               transform="translate(0,6.9180002)"
               style="stroke-width:2.54355">
              <path
                 style="stroke:none;stroke-width:2.54355"
                 d="m 1.09375,-0.75 c 0,0.4375 -0.109375,0.4375 -0.78125,0.4375 V 0 c 0.359375,-0.015625 0.859375,-0.03125 1.140625,-0.03125 0.25,0 0.765625,0.015625 1.109375,0.03125 v -0.3125 c -0.671875,0 -0.78125,0 -0.78125,-0.4375 V -2.59375 C 1.78125,-3.625 2.5,-4.1875 3.125,-4.1875 c 0.640625,0 0.75,0.53125 0.75,1.109375 V -0.75 c 0,0.4375 -0.109375,0.4375 -0.78125,0.4375 V 0 c 0.34375,-0.015625 0.859375,-0.03125 1.125,-0.03125 0.25,0 0.78125,0.015625 1.109375,0.03125 v -0.3125 c -0.515625,0 -0.765625,0 -0.765625,-0.296875 v -1.90625 c 0,-0.859375 0,-1.15625 -0.3125,-1.515625 -0.140625,-0.171875 -0.46875,-0.375 -1.046875,-0.375 -0.84375,0 -1.28125,0.59375 -1.453125,0.984375 v -3.5 L 0.3125,-6.8125 V -6.5 c 0.703125,0 0.78125,0.0625 0.78125,0.5625 z m 0,0"
                 id="path102" />
            </g>
            <g
               id="g579"
               transform="translate(5.5352211,6.9180002)"
               style="stroke-width:2.54355">
              <path
                 style="stroke:none;stroke-width:2.54355"
                 d="M 4.6875,-2.140625 C 4.6875,-3.40625 3.703125,-4.46875 2.5,-4.46875 c -1.25,0 -2.21875,1.09375 -2.21875,2.328125 0,1.296875 1.03125,2.25 2.203125,2.25 1.203125,0 2.203125,-0.984375 2.203125,-2.25 z m -2.1875,2 c -0.4375,0 -0.875,-0.203125 -1.140625,-0.671875 -0.25,-0.4375 -0.25,-1.046875 -0.25,-1.40625 0,-0.390625 0,-0.921875 0.234375,-1.359375 C 1.609375,-4.03125 2.078125,-4.25 2.484375,-4.25 c 0.4375,0 0.859375,0.21875 1.125,0.65625 0.265625,0.421875 0.265625,1 0.265625,1.375 0,0.359375 0,0.90625 -0.21875,1.34375 C 3.421875,-0.421875 2.984375,-0.140625 2.5,-0.140625 Z m 0,0"
                 id="path106" />
            </g>
            <g
               id="g582"
               transform="translate(10.516521,6.9180002)"
               style="stroke-width:2.54355">
              <path
                 style="stroke:none;stroke-width:2.54355"
                 d="m 1.71875,-3.984375 h 1.4375 v -0.3125 H 1.71875 V -6.125 h -0.25 c 0,0.8125 -0.296875,1.875 -1.28125,1.921875 v 0.21875 h 0.84375 v 2.75 c 0,1.21875 0.9375,1.34375 1.296875,1.34375 0.703125,0 0.984375,-0.703125 0.984375,-1.34375 v -0.5625 h -0.25 V -1.25 c 0,0.734375 -0.296875,1.109375 -0.671875,1.109375 -0.671875,0 -0.671875,-0.90625 -0.671875,-1.078125 z m 0,0"
                 id="path110" />
            </g>
          </g>
        </g>
        <g
           clip-path="url(#clipPath9099)"
           clip-rule="nonzero"
           id="g69"
           style="stroke-width:6.46966">
          <g
             style="fill:#000000;fill-opacity:1;stroke-width:2.54355"
             id="g67">
            <g
               id="use61"
               transform="translate(17.708523,6.9180002)"
               style="stroke-width:2.54355">
              <path
                 style="stroke:none;stroke-width:2.54355"
                 d="m 3.3125,-0.75 c 0.046875,0.390625 0.3125,0.8125 0.78125,0.8125 0.21875,0 0.828125,-0.140625 0.828125,-0.953125 v -0.5625 h -0.25 v 0.5625 c 0,0.578125 -0.25,0.640625 -0.359375,0.640625 -0.328125,0 -0.375,-0.453125 -0.375,-0.5 v -1.984375 c 0,-0.421875 0,-0.8125 -0.359375,-1.1875 C 3.1875,-4.3125 2.6875,-4.46875 2.21875,-4.46875 c -0.828125,0 -1.515625,0.46875 -1.515625,1.125 0,0.296875 0.203125,0.46875 0.46875,0.46875 0.28125,0 0.453125,-0.203125 0.453125,-0.453125 0,-0.125 -0.046875,-0.453125 -0.515625,-0.453125 C 1.390625,-4.140625 1.875,-4.25 2.1875,-4.25 c 0.5,0 1.0625,0.390625 1.0625,1.28125 v 0.359375 c -0.515625,0.03125 -1.203125,0.0625 -1.828125,0.359375 -0.75,0.34375 -1,0.859375 -1,1.296875 0,0.8125 0.96875,1.0625 1.59375,1.0625 0.65625,0 1.109375,-0.40625 1.296875,-0.859375 z M 3.25,-2.390625 v 1 c 0,0.9375 -0.71875,1.28125 -1.171875,1.28125 -0.484375,0 -0.890625,-0.34375 -0.890625,-0.84375 0,-0.546875 0.421875,-1.375 2.0625,-1.4375 z m 0,0"
                 id="path114" />
            </g>
            <g
               id="use63"
               transform="translate(22.689821,6.9180002)"
               style="stroke-width:2.54355">
              <path
                 style="stroke:none;stroke-width:2.54355"
                 d="M 1.765625,-4.40625 0.375,-4.296875 v 0.3125 c 0.640625,0 0.734375,0.0625 0.734375,0.546875 V -0.75 c 0,0.4375 -0.109375,0.4375 -0.78125,0.4375 V 0 C 0.640625,-0.015625 1.1875,-0.03125 1.421875,-0.03125 1.78125,-0.03125 2.125,-0.015625 2.46875,0 v -0.3125 c -0.671875,0 -0.703125,-0.046875 -0.703125,-0.4375 z m 0.03125,-1.734375 c 0,-0.3125 -0.234375,-0.53125 -0.515625,-0.53125 -0.3125,0 -0.53125,0.265625 -0.53125,0.53125 0,0.265625 0.21875,0.53125 0.53125,0.53125 0.28125,0 0.515625,-0.21875 0.515625,-0.53125 z m 0,0"
                 id="path118" />
            </g>
            <g
               id="use65"
               transform="translate(25.457432,6.9180002)"
               style="stroke-width:2.54355">
              <path
                 style="stroke:none;stroke-width:2.54355"
                 d="M 1.671875,-3.3125 V -4.40625 L 0.28125,-4.296875 v 0.3125 c 0.703125,0 0.78125,0.0625 0.78125,0.5625 V -0.75 c 0,0.4375 -0.109375,0.4375 -0.78125,0.4375 V 0 c 0.390625,-0.015625 0.859375,-0.03125 1.140625,-0.03125 0.390625,0 0.859375,0 1.265625,0.03125 V -0.3125 H 2.46875 c -0.734375,0 -0.75,-0.109375 -0.75,-0.46875 V -2.3125 c 0,-0.984375 0.421875,-1.875 1.171875,-1.875 0.0625,0 0.09375,0 0.109375,0.015625 -0.03125,0 -0.234375,0.125 -0.234375,0.390625 0,0.265625 0.21875,0.421875 0.4375,0.421875 0.171875,0 0.421875,-0.125 0.421875,-0.4375 0,-0.3125 -0.3125,-0.609375 -0.734375,-0.609375 -0.734375,0 -1.09375,0.671875 -1.21875,1.09375 z m 0,0"
                 id="path122" />
            </g>
          </g>
        </g>
        <g
           clip-path="url(#clipPath9226)"
           clip-rule="nonzero"
           id="g81"
           style="stroke-width:6.46966">
          <g
             style="fill:#000000;fill-opacity:1;stroke-width:2.54355"
             id="g79">
            <g
               id="use71"
               transform="translate(32.68729,6.9180002)"
               style="stroke-width:2.54355">
              <path
                 style="stroke:none;stroke-width:2.54355"
                 d="m 1.71875,-3.765625 v -3.15625 L 0.28125,-6.8125 V -6.5 c 0.703125,0 0.78125,0.0625 0.78125,0.5625 V 0 h 0.25 c 0,-0.015625 0.078125,-0.15625 0.359375,-0.625 0.140625,0.234375 0.5625,0.734375 1.296875,0.734375 1.1875,0 2.21875,-0.984375 2.21875,-2.265625 0,-1.265625 -0.96875,-2.25 -2.109375,-2.25 -0.78125,0 -1.203125,0.46875 -1.359375,0.640625 z m 0.03125,2.625 V -3.1875 c 0,-0.1875 0,-0.203125 0.109375,-0.359375 C 2.25,-4.109375 2.796875,-4.1875 3.03125,-4.1875 c 0.453125,0 0.8125,0.265625 1.046875,0.640625 0.265625,0.40625 0.28125,0.96875 0.28125,1.390625 0,0.359375 -0.015625,0.953125 -0.296875,1.40625 -0.21875,0.3125 -0.59375,0.640625 -1.125,0.640625 -0.453125,0 -0.8125,-0.234375 -1.046875,-0.609375 C 1.75,-0.921875 1.75,-0.953125 1.75,-1.140625 Z m 0,0"
                 id="path126" />
            </g>
            <g
               id="use73"
               transform="translate(38.222511,6.9180002)"
               style="stroke-width:2.54355">
              <path
                 style="stroke:none;stroke-width:2.54355"
                 d="m 3.3125,-0.75 c 0.046875,0.390625 0.3125,0.8125 0.78125,0.8125 0.21875,0 0.828125,-0.140625 0.828125,-0.953125 v -0.5625 h -0.25 v 0.5625 c 0,0.578125 -0.25,0.640625 -0.359375,0.640625 -0.328125,0 -0.375,-0.453125 -0.375,-0.5 v -1.984375 c 0,-0.421875 0,-0.8125 -0.359375,-1.1875 C 3.1875,-4.3125 2.6875,-4.46875 2.21875,-4.46875 c -0.828125,0 -1.515625,0.46875 -1.515625,1.125 0,0.296875 0.203125,0.46875 0.46875,0.46875 0.28125,0 0.453125,-0.203125 0.453125,-0.453125 0,-0.125 -0.046875,-0.453125 -0.515625,-0.453125 C 1.390625,-4.140625 1.875,-4.25 2.1875,-4.25 c 0.5,0 1.0625,0.390625 1.0625,1.28125 v 0.359375 c -0.515625,0.03125 -1.203125,0.0625 -1.828125,0.359375 -0.75,0.34375 -1,0.859375 -1,1.296875 0,0.8125 0.96875,1.0625 1.59375,1.0625 0.65625,0 1.109375,-0.40625 1.296875,-0.859375 z M 3.25,-2.390625 v 1 c 0,0.9375 -0.71875,1.28125 -1.171875,1.28125 -0.484375,0 -0.890625,-0.34375 -0.890625,-0.84375 0,-0.546875 0.421875,-1.375 2.0625,-1.4375 z m 0,0"
                 id="path130" />
            </g>
            <g
               id="use75"
               transform="translate(43.203812,6.9180002)"
               style="stroke-width:2.54355">
              <path
                 style="stroke:none;stroke-width:2.54355"
                 d="M 1.765625,-6.921875 0.328125,-6.8125 V -6.5 c 0.703125,0 0.78125,0.0625 0.78125,0.5625 V -0.75 c 0,0.4375 -0.109375,0.4375 -0.78125,0.4375 V 0 C 0.65625,-0.015625 1.1875,-0.03125 1.4375,-0.03125 c 0.25,0 0.734375,0.015625 1.109375,0.03125 v -0.3125 c -0.671875,0 -0.78125,0 -0.78125,-0.4375 z m 0,0"
                 id="path134" />
            </g>
            <g
               id="use77"
               transform="translate(45.97142,6.9180002)"
               style="stroke-width:2.54355">
              <path
                 style="stroke:none;stroke-width:2.54355"
                 d="M 1.765625,-6.921875 0.328125,-6.8125 V -6.5 c 0.703125,0 0.78125,0.0625 0.78125,0.5625 V -0.75 c 0,0.4375 -0.109375,0.4375 -0.78125,0.4375 V 0 C 0.65625,-0.015625 1.1875,-0.03125 1.4375,-0.03125 c 0.25,0 0.734375,0.015625 1.109375,0.03125 v -0.3125 c -0.671875,0 -0.78125,0 -0.78125,-0.4375 z m 0,0"
                 id="path138" />
            </g>
          </g>
        </g>
        <g
           clip-path="url(#clipPath5905)"
           clip-rule="nonzero"
           id="g87"
           style="stroke-width:6.46966">
          <g
             style="fill:#000000;fill-opacity:1;stroke-width:2.54355"
             id="g85">
            <g
               id="use83"
               transform="translate(48.729069,6.9180002)"
               style="stroke-width:2.54355">
              <path
                 style="stroke:none;stroke-width:2.54355"
                 d="M 4.6875,-2.140625 C 4.6875,-3.40625 3.703125,-4.46875 2.5,-4.46875 c -1.25,0 -2.21875,1.09375 -2.21875,2.328125 0,1.296875 1.03125,2.25 2.203125,2.25 1.203125,0 2.203125,-0.984375 2.203125,-2.25 z m -2.1875,2 c -0.4375,0 -0.875,-0.203125 -1.140625,-0.671875 -0.25,-0.4375 -0.25,-1.046875 -0.25,-1.40625 0,-0.390625 0,-0.921875 0.234375,-1.359375 C 1.609375,-4.03125 2.078125,-4.25 2.484375,-4.25 c 0.4375,0 0.859375,0.21875 1.125,0.65625 0.265625,0.421875 0.265625,1 0.265625,1.375 0,0.359375 0,0.90625 -0.21875,1.34375 C 3.421875,-0.421875 2.984375,-0.140625 2.5,-0.140625 Z m 0,0"
                 id="path142" />
            </g>
          </g>
        </g>
        <g
           clip-path="url(#clipPath7871)"
           clip-rule="nonzero"
           id="g95"
           style="stroke-width:6.46966">
          <g
             style="fill:#000000;fill-opacity:1;stroke-width:2.54355"
             id="g93">
            <g
               id="use89"
               transform="translate(53.989323,6.9180002)"
               style="stroke-width:2.54355">
              <path
                 style="stroke:none;stroke-width:2.54355"
                 d="M 4.6875,-2.140625 C 4.6875,-3.40625 3.703125,-4.46875 2.5,-4.46875 c -1.25,0 -2.21875,1.09375 -2.21875,2.328125 0,1.296875 1.03125,2.25 2.203125,2.25 1.203125,0 2.203125,-0.984375 2.203125,-2.25 z m -2.1875,2 c -0.4375,0 -0.875,-0.203125 -1.140625,-0.671875 -0.25,-0.4375 -0.25,-1.046875 -0.25,-1.40625 0,-0.390625 0,-0.921875 0.234375,-1.359375 C 1.609375,-4.03125 2.078125,-4.25 2.484375,-4.25 c 0.4375,0 0.859375,0.21875 1.125,0.65625 0.265625,0.421875 0.265625,1 0.265625,1.375 0,0.359375 0,0.90625 -0.21875,1.34375 C 3.421875,-0.421875 2.984375,-0.140625 2.5,-0.140625 Z m 0,0"
                 id="path146" />
            </g>
            <g
               id="use91"
               transform="translate(58.970623,6.9180002)"
               style="stroke-width:2.54355">
              <path
                 style="stroke:none;stroke-width:2.54355"
                 d="M 1.09375,-3.421875 V -0.75 c 0,0.4375 -0.109375,0.4375 -0.78125,0.4375 V 0 c 0.359375,-0.015625 0.859375,-0.03125 1.140625,-0.03125 0.25,0 0.765625,0.015625 1.109375,0.03125 v -0.3125 c -0.671875,0 -0.78125,0 -0.78125,-0.4375 V -2.59375 C 1.78125,-3.625 2.5,-4.1875 3.125,-4.1875 c 0.640625,0 0.75,0.53125 0.75,1.109375 V -0.75 c 0,0.4375 -0.109375,0.4375 -0.78125,0.4375 V 0 c 0.34375,-0.015625 0.859375,-0.03125 1.125,-0.03125 0.25,0 0.78125,0.015625 1.109375,0.03125 v -0.3125 c -0.515625,0 -0.765625,0 -0.765625,-0.296875 v -1.90625 c 0,-0.859375 0,-1.15625 -0.3125,-1.515625 -0.140625,-0.171875 -0.46875,-0.375 -1.046875,-0.375 C 2.46875,-4.40625 2,-3.984375 1.71875,-3.359375 V -4.40625 L 0.3125,-4.296875 v 0.3125 c 0.703125,0 0.78125,0.0625 0.78125,0.5625 z m 0,0"
                 id="path150" />
            </g>
          </g>
        </g>
      </g>
    </g>
  </g>
</svg>
